<svg width="19" height="19" viewBox="0 0 19 19" fill="none" xmlns="http://www.w3.org/2000/svg">
<g clip-path="url(#clip0)">
<path d="M15.2671 0.5H3.73293C1.95023 0.5 0.5 1.95023 0.5 3.73293V15.267C0.5 17.0498 1.95023 18.5 3.73293 18.5H15.2671C17.0498 18.5 18.5 17.0498 18.5 15.2671V3.73293C18.5 1.95023 17.0498 0.5 15.2671 0.5ZM15.7118 14.5471H9.94293C9.43591 16.0479 7.306 16.0502 6.79824 14.5471H3.28824C2.58786 14.5471 2.58768 13.4882 3.28824 13.4882H6.79824C7.30523 11.9874 9.43517 11.9851 9.94293 13.4882H15.7118C16.4121 13.4882 16.4124 14.5471 15.7118 14.5471ZM15.7118 10.0294H14.4606C13.9536 11.5302 11.8237 11.5325 11.3159 10.0294H3.28824C2.58786 10.0294 2.58768 8.97058 3.28824 8.97058H11.3159C11.8229 7.46976 13.9528 7.46748 14.4606 8.97058H15.7118C16.4121 8.97058 16.4124 10.0294 15.7118 10.0294ZM15.7118 5.51177H7.68411C7.17709 7.01259 5.04718 7.01488 4.53942 5.51177H3.28824C2.58786 5.51177 2.58768 4.45293 3.28824 4.45293H4.53942C5.04641 2.95211 7.17635 2.94983 7.68411 4.45293H15.7118C16.4121 4.45293 16.4124 5.51177 15.7118 5.51177Z" fill="#264066"/>
<path d="M8.37063 13.4175C7.57677 13.4175 7.57719 14.6175 8.37063 14.6175C9.16446 14.6175 9.16403 13.4175 8.37063 13.4175Z" fill="#264066"/>
<path d="M6.11086 4.38232C5.317 4.38232 5.31742 5.58231 6.11086 5.58231C6.90469 5.58235 6.90427 4.38232 6.11086 4.38232Z" fill="#264066"/>
<path d="M12.8882 8.8999C12.0943 8.8999 12.0948 10.0999 12.8882 10.0999C13.6821 10.0999 13.6817 8.8999 12.8882 8.8999Z" fill="#264066"/>
</g>
<defs>
<clipPath id="clip0">
<rect width="18" height="18" fill="white" transform="translate(0.5 0.5)"/>
</clipPath>
</defs>
</svg>
