<svg width="25" height="25" viewBox="0 0 25 25" fill="none" xmlns="http://www.w3.org/2000/svg">
<path d="M12.5 0C8.84819 0 5.9082 2.948 5.9082 6.5918C5.9082 8.87847 7.13271 11.0385 9.10684 12.2302C10.3786 12.9912 11.332 14.18 11.842 15.7021C11.9643 15.9538 12.2461 16.0518 12.5258 16.0518C12.8062 16.0518 13.088 15.8308 13.2103 15.579C13.6681 14.18 14.6215 12.9912 15.8961 12.2288C17.8673 11.0385 19.0918 8.87847 19.0918 6.5918C19.0918 2.97471 16.1709 0 12.5 0ZM12.5 10.2539C12.0955 10.2539 11.7676 9.92598 11.7676 9.52149C11.7676 9.11699 12.0955 8.78906 12.5 8.78906C12.9045 8.78906 13.2324 9.11699 13.2324 9.52149C13.2324 9.92598 12.9045 10.2539 12.5 10.2539ZM13.2417 7.19619C13.2417 7.60029 12.9091 7.99229 12.505 7.99229C12.1001 7.99229 11.7675 7.72905 11.7675 7.32422C11.7675 6.58535 12.1616 6.02676 12.7474 5.81719C13.0372 5.71274 13.2324 5.43594 13.2324 5.12695C13.2324 4.72285 12.9041 4.39453 12.5 4.39453C12.0959 4.39453 11.7676 4.72285 11.7676 5.12695C11.7676 5.53179 11.44 5.85938 11.0352 5.85938C10.6303 5.85938 10.3027 5.53179 10.3027 5.12695C10.3027 3.91533 11.2884 2.92969 12.5 2.92969C13.7116 2.92969 14.6973 3.91533 14.6973 5.12695C14.6973 6.05176 14.1122 6.88364 13.2417 7.19619Z" fill="#264066"/>
<path d="M24.2676 7.32422H23.5352V19.873C23.5352 21.0847 22.5495 22.0703 21.3379 22.0703H14.5721C14.2696 22.9229 13.4549 23.5352 12.5 23.5352C11.5451 23.5352 10.7305 22.9229 10.4279 22.0703H3.66211C2.45049 22.0703 1.46484 21.0847 1.46484 19.873V7.32422H0.732422C0.327588 7.32422 0 7.65181 0 8.05664V22.8027C0 23.2076 0.327588 23.5352 0.732422 23.5352H9.26704L10.5173 24.7854C10.6546 24.9228 10.8406 25 11.0352 25H13.9648C14.1594 25 14.3454 24.9228 14.4827 24.7854L15.733 23.5352H24.2676C24.6724 23.5352 25 23.2076 25 22.8027V8.05664C25 7.65181 24.6724 7.32422 24.2676 7.32422Z" fill="#264066"/>
<path d="M10.483 16.257C10.4361 16.1677 10.0321 14.4906 8.35435 13.4869C5.94038 12.0299 4.44336 9.38843 4.44336 6.5918C4.44336 5.85723 4.53203 5.18345 4.71514 4.53257C4.7273 4.48467 4.75 4.44199 4.76304 4.39453H3.71094C3.3061 4.39453 2.97852 4.72212 2.97852 5.12695V19.873C2.97852 20.2779 3.3061 20.6055 3.71094 20.6055H11.0352C11.4393 20.6055 11.7676 20.9338 11.7676 21.3379V17.3881C10.7857 17.0722 10.5069 16.2881 10.483 16.257Z" fill="#264066"/>
<path d="M21.2891 4.39453H20.2324C20.2508 4.46006 20.2816 4.51924 20.2984 4.5855C20.4687 5.18701 20.5566 5.85581 20.5566 6.5918C20.5566 9.38843 19.061 12.0291 16.6535 13.4826C14.9734 14.4874 14.6478 15.9942 14.5277 16.2191C14.2619 16.7664 13.7792 17.1751 13.2324 17.3756V21.3379C13.2324 20.9338 13.5607 20.6055 13.9648 20.6055H21.2891C21.6939 20.6055 22.0215 20.2779 22.0215 19.873V5.12695C22.0215 4.72212 21.6939 4.39453 21.2891 4.39453Z" fill="#264066"/>
</svg>
