<svg width="80" height="80" viewBox="0 0 80 80" fill="none" xmlns="http://www.w3.org/2000/svg">
<g clip-path="url(#clip0)">
<path d="M17.0275 72.1207C12.7595 72.1207 8.90609 70.3146 6.18937 67.4274C3.66641 70.0993 2.11719 73.6999 2.11719 77.656C2.11719 78.9504 3.16656 79.9997 4.46094 79.9997H29.5942C30.8886 79.9997 31.938 78.9504 31.938 77.656C31.938 73.6999 30.3887 70.0991 27.8658 67.4272C25.1489 70.3146 21.2955 72.1207 17.0275 72.1207Z" fill="#F5C1BC"/>
<path d="M73.8129 67.4277C71.0962 70.3149 67.2426 72.121 62.9748 72.121C58.707 72.121 54.8534 70.3149 52.1366 67.4277C49.6137 70.0996 48.0645 73.7004 48.0645 77.6565C48.0645 78.9509 49.1138 80.0002 50.4082 80.0002H75.5415C76.8359 80.0002 77.8852 78.9509 77.8852 77.6565C77.8851 73.7002 76.3358 70.0995 73.8129 67.4277Z" fill="#F5C1BC"/>
<path d="M19.383 67.1396C24.863 65.8442 28.2554 60.3516 26.96 54.8716C25.6646 49.3916 20.172 45.9993 14.692 47.2946C9.21197 48.59 5.81965 54.0826 7.11503 59.5626C8.41041 65.0426 13.903 68.435 19.383 67.1396Z" fill="#F5C1BC"/>
<path d="M70.1707 64.4461C74.1526 60.4641 74.1527 54.0081 70.1708 50.0263C66.1889 46.0444 59.7329 46.0444 55.751 50.0264C51.769 54.0083 51.769 60.4643 55.7509 64.4462C59.7328 68.4281 66.1887 68.428 70.1707 64.4461Z" fill="#F5C1BC"/>
<path d="M50.1484 42.2994C53.0014 42.1741 55.7242 41.328 58.127 39.8203C60.5594 40.9178 62.2756 41.9611 62.2941 41.9724C63.0173 42.4156 63.9237 42.4333 64.6637 42.0188C65.4039 41.6042 65.8622 40.8222 65.8622 39.9739C65.8622 36.9694 65.4581 34.3096 64.6595 32.0491C65.458 30.0874 65.8622 28.0111 65.8622 25.8627C65.8622 20.7647 63.5317 16.2008 59.8801 13.1802C60.6981 15.6942 61.1422 18.3755 61.1422 21.1589C61.1422 29.8869 56.7928 37.6175 50.1484 42.2994Z" fill="#F5C1BC"/>
<path d="M15.3366 42.018C16.076 42.4327 16.9824 42.4153 17.7059 41.973C17.7335 41.9561 20.2396 40.4316 23.7377 38.8838C27.1751 41.1347 31.1434 42.3177 35.2976 42.3177C46.9646 42.3177 56.4565 32.8258 56.4565 21.1588C56.4565 9.49172 46.9646 0 35.2976 0C23.6305 0 14.1387 9.49188 14.1387 21.1589C14.1387 24.0222 14.6966 26.7852 15.7987 29.3877C14.6966 32.3762 14.1387 35.9313 14.1387 39.9741C14.1387 40.8217 14.5971 41.6033 15.3366 42.018ZM44.7051 23.5025C43.3912 23.5025 42.4182 22.4286 42.3613 21.1588C42.3046 19.893 43.4791 18.815 44.7051 18.815C46.019 18.815 46.9919 19.8889 47.0488 21.1588C47.1055 22.4245 45.931 23.5025 44.7051 23.5025ZM35.2976 18.815C36.6115 18.815 37.5844 19.8889 37.6413 21.1588C37.698 22.4245 36.5235 23.5025 35.2976 23.5025C33.9837 23.5025 33.0107 22.4286 32.9538 21.1588C32.8971 19.8931 34.0716 18.815 35.2976 18.815ZM25.8901 18.815C27.204 18.815 28.177 19.8889 28.2338 21.1588C28.2905 22.4245 27.116 23.5025 25.8901 23.5025C24.5762 23.5025 23.6032 22.4286 23.5463 21.1588C23.4896 19.8931 24.6641 18.815 25.8901 18.815Z" fill="#F5C1BC"/>
</g>
<defs>
<clipPath id="clip0">
<rect width="80" height="80" fill="white"/>
</clipPath>
</defs>
</svg>
