<svg width="80" height="80" viewBox="0 0 80 80" fill="none" xmlns="http://www.w3.org/2000/svg">
<path d="M19.9998 0C18.4218 0 17.1426 1.27918 17.1426 2.8572V8.57142H22.8568V2.8572C22.8568 1.27918 21.5776 0 19.9998 0Z" fill="#F5C1BC"/>
<path d="M59.9998 0C58.4218 0 57.1426 1.27918 57.1426 2.8572V8.57142H62.8568V2.8572C62.857 1.27918 61.5778 0 59.9998 0Z" fill="#F5C1BC"/>
<path d="M71.4286 8.57129H62.8572V19.9999C62.8572 21.5779 61.578 22.8571 60 22.8571C58.4219 22.8571 57.1428 21.5779 57.1428 19.9999V8.57129H22.8571V19.9999C22.8571 21.5779 21.5779 22.8571 19.9999 22.8571C18.4219 22.8571 17.1427 21.5779 17.1427 19.9999V8.57129H8.57142C3.83755 8.57129 0 12.4088 0 17.1427V71.4284C0 76.1623 3.83755 79.9999 8.57142 79.9999H71.4286C76.1624 79.9999 80 76.1623 80 71.4284V17.1427C80 12.4088 76.1624 8.57129 71.4286 8.57129ZM74.2856 71.4284C74.2856 73.0065 73.0064 74.2856 71.4284 74.2856H8.57142C6.99341 74.2856 5.71423 73.0065 5.71423 71.4284V34.2856H74.2856V71.4284Z" fill="#F5C1BC"/>
<path d="M22.8585 40H17.1443C15.5663 40 14.2871 41.2792 14.2871 42.8572C14.2871 44.4352 15.5663 45.7144 17.1443 45.7144H22.8585C24.4365 45.7144 25.7157 44.4352 25.7157 42.8572C25.7157 41.2792 24.4365 40 22.8585 40Z" fill="#F5C1BC"/>
<path d="M42.8566 40H37.1424C35.5643 40 34.2852 41.2792 34.2852 42.8572C34.2852 44.4352 35.5643 45.7144 37.1424 45.7144H42.8566C44.4346 45.7144 45.7138 44.4352 45.7138 42.8572C45.7138 41.2792 44.4346 40 42.8566 40Z" fill="#F5C1BC"/>
<path d="M62.8566 40H57.1424C55.5643 40 54.2852 41.2792 54.2852 42.8572C54.2852 44.4352 55.5643 45.7144 57.1424 45.7144H62.8566C64.4346 45.7144 65.7138 44.4352 65.7138 42.8572C65.7138 41.2792 64.4344 40 62.8566 40Z" fill="#F5C1BC"/>
<path d="M22.8585 51.4287H17.1443C15.5663 51.4287 14.2871 52.7079 14.2871 54.2859C14.2871 55.8639 15.5663 57.1431 17.1443 57.1431H22.8585C24.4365 57.1431 25.7157 55.8639 25.7157 54.2859C25.7157 52.7079 24.4365 51.4287 22.8585 51.4287Z" fill="#F5C1BC"/>
<path d="M42.8566 51.4287H37.1424C35.5643 51.4287 34.2852 52.7079 34.2852 54.2859C34.2852 55.8639 35.5643 57.1431 37.1424 57.1431H42.8566C44.4346 57.1431 45.7138 55.8639 45.7138 54.2859C45.7138 52.7079 44.4346 51.4287 42.8566 51.4287Z" fill="#F5C1BC"/>
<path d="M62.8566 51.4287H57.1424C55.5643 51.4287 54.2852 52.7079 54.2852 54.2859C54.2852 55.8639 55.5643 57.1431 57.1424 57.1431H62.8566C64.4346 57.1431 65.7138 55.8639 65.7138 54.2859C65.7136 52.7079 64.4344 51.4287 62.8566 51.4287Z" fill="#F5C1BC"/>
<path d="M22.8585 62.8574H17.1443C15.5663 62.8574 14.2871 64.1366 14.2871 65.7146C14.2871 67.2926 15.5663 68.5716 17.1443 68.5716H22.8585C24.4365 68.5716 25.7157 67.2925 25.7157 65.7144C25.7157 64.1364 24.4365 62.8574 22.8585 62.8574Z" fill="#F5C1BC"/>
<path d="M42.8566 62.8574H37.1424C35.5643 62.8574 34.2852 64.1366 34.2852 65.7146C34.2852 67.2926 35.5643 68.5718 37.1424 68.5718H42.8566C44.4346 68.5718 45.7138 67.2926 45.7138 65.7146C45.7138 64.1366 44.4346 62.8574 42.8566 62.8574Z" fill="#F5C1BC"/>
<path d="M62.8566 62.8574H57.1424C55.5643 62.8574 54.2852 64.1366 54.2852 65.7146C54.2852 67.2926 55.5643 68.5718 57.1424 68.5718H62.8566C64.4346 68.5718 65.7138 67.2926 65.7138 65.7146C65.7138 64.1366 64.4344 62.8574 62.8566 62.8574Z" fill="#F5C1BC"/>
</svg>
