<svg width="18" height="18" viewBox="0 0 18 18" fill="none" xmlns="http://www.w3.org/2000/svg">
<g clip-path="url(#clip0)">
<path d="M17.661 6.23361C17.6113 6.21203 16.3993 5.68694 9.2231 2.57717C9.08036 2.51529 8.91863 2.51529 8.77589 2.57717L0.337942 6.23361C-0.114824 6.42941 -0.110465 7.0721 0.337942 7.26586C1.97715 7.97608 4.65694 9.13746 8.77589 10.9223C8.91778 10.9838 9.07951 10.9846 9.2231 10.9223C9.61423 10.7528 14.9437 8.44333 15.1873 8.33783V14.3281C15.1873 14.6311 15.4203 14.8917 15.723 14.9058C16.046 14.9208 16.3124 14.6636 16.3124 14.3439V8.1338C16.3124 8.04542 16.2469 7.97077 16.1592 7.95949C15.1034 7.82343 10.124 7.18074 8.92742 7.02643C8.58132 6.98318 8.36566 6.63273 8.45665 6.32081C8.52802 6.05737 8.77814 5.88956 9.03149 5.90699C9.05673 5.90847 17.0732 6.94296 17.0675 6.94222C17.2172 6.96149 17.3404 7.0574 17.3995 7.18745C17.4408 7.27837 17.5461 7.32003 17.6365 7.27763C17.7879 7.20668 17.9192 7.1133 17.9789 6.90197C18.0557 6.62812 17.9169 6.34422 17.661 6.23361Z" fill="#264066"/>
<path d="M8.32913 11.9549L3.62068 9.91459C3.50459 9.86428 3.375 9.9494 3.375 10.0759V12.0941C3.375 13.9867 5.84591 15.4693 9.0003 15.4693C12.1547 15.4693 14.6256 13.9867 14.6256 12.0941V10.0759C14.6256 9.9494 14.496 9.86431 14.3799 9.91459L9.67111 11.9549C9.24359 12.1407 8.75707 12.1406 8.32913 11.9549Z" fill="#264066"/>
</g>
<defs>
<clipPath id="clip0">
<rect width="18" height="18" fill="white"/>
</clipPath>
</defs>
</svg>
