<svg width="45" height="45" viewBox="0 0 45 45" fill="none" xmlns="http://www.w3.org/2000/svg">
<g clip-path="url(#clip0)">
<path d="M18.0489 44.9997C20.9869 44.9997 23.3686 42.618 23.3686 39.68C23.3686 36.742 20.9869 34.3604 18.0489 34.3604C15.111 34.3604 12.7293 36.742 12.7293 39.68C12.7293 42.618 15.111 44.9997 18.0489 44.9997Z" fill="#F5C1BC"/>
<path d="M33.5736 34.3613C30.6357 34.3613 28.254 36.7431 28.254 39.681C28.254 42.6189 30.6357 45.0006 33.5736 45.0006C36.5115 45.0006 38.8933 42.6189 38.8933 39.681C38.8933 36.7431 36.5115 34.3613 33.5736 34.3613Z" fill="#F5C1BC"/>
<path d="M42.6387 28.9325H14.9005L14.3577 25.7842H37.1562C37.8269 25.7862 38.4303 25.3767 38.6761 24.7528L44.1043 11.0737C44.4342 10.237 44.0231 9.29131 43.1864 8.96159C42.9947 8.886 42.7904 8.84751 42.5844 8.84815H11.5351L10.2323 1.35721C10.0985 0.565141 9.40703 -0.0110765 8.60382 0.000161566H2.36137C1.46201 0.000161566 0.73291 0.72926 0.73291 1.62863C0.73291 2.52799 1.46201 3.25709 2.36137 3.25709H7.24677L11.915 30.8324C12.0488 31.6245 12.7403 32.2007 13.5435 32.1895H42.6387C43.5381 32.1895 44.2672 31.4604 44.2672 30.561C44.2672 29.6616 43.5381 28.9325 42.6387 28.9325Z" fill="#F5C1BC"/>
</g>
<defs>
<clipPath id="clip0">
<rect width="45" height="45" fill="white"/>
</clipPath>
</defs>
</svg>
