<svg width="81" height="80" viewBox="0 0 81 80" fill="none" xmlns="http://www.w3.org/2000/svg">
<path d="M51.0542 34.58C52.8095 36.0688 53.7795 36.9007 54.511 37.5326C55.6109 38.4829 57.2305 38.4815 58.332 37.533C59.2108 36.7764 60.4573 35.7139 62.4896 34.0096C69.8611 27.8199 75.1871 23.3507 75.1871 16.7489C75.1871 10.4905 70.5897 5.58838 64.7207 5.58838C60.7783 5.58838 58.1623 7.81275 56.5199 10.0782C54.9645 7.80587 52.4355 5.58838 48.4817 5.58838C42.6129 5.58838 38.0176 10.4906 38.0176 16.7489C38.0174 23.518 43.2038 27.9184 51.0542 34.58Z" fill="#F5C1BC"/>
<path d="M13.3845 73.1454C19.5303 68.9702 26.2549 67.3748 33.5735 68.5947L45.3021 70.612C49.8061 71.3628 53.9342 71.1281 57.4997 69.9552C64.8759 67.4969 72.2601 59.7546 74.2171 56.8192C76.9383 52.7376 78.4331 48.2807 79.3716 46.1228C80.263 44.0586 80.263 42.6042 79.3247 41.7598C78.2455 40.7744 76.416 41.2905 75.0553 42.0412C72.8974 43.261 70.6047 46.7796 68.2589 50.1573C65.2097 54.5673 59.9865 57.1945 54.6381 57.1945H37.6549V52.503H44.6921C57.1712 52.503 62.754 50.1573 62.754 47.8116C62.754 45.8413 58.8603 44.9498 57.5465 44.6685C52.433 43.4956 40.8919 42.9326 33.0104 39.414C31.589 38.7921 29.9777 38.4431 28.2723 38.4287C25.5985 38.406 22.6926 39.239 19.9211 41.3843C19.8745 41.3843 19.8745 41.3843 19.8274 41.4312C17.9978 42.8386 15.4956 44.9029 12.1178 47.8585C9.25586 50.3917 6.48807 53.6288 1.65572 57.7574L1.22422 58.129C0.5176 58.7375 0.406345 59.7907 0.970236 60.5334L10.4985 73.0828C11.0648 73.8287 12.1152 74.0023 12.8914 73.4783L13.3845 73.1454Z" fill="#F5C1BC"/>
</svg>
