<svg width="26" height="26" viewBox="0 0 26 26" fill="none" xmlns="http://www.w3.org/2000/svg">
<path d="M13.9014 0.120117C13.5295 0.120117 13.1707 0.277617 12.9192 0.548867L5.72012 7.96012V18.0401L12.9192 25.4514C13.1707 25.7248 13.5295 25.8801 13.9014 25.8801C14.6386 25.8801 15.2401 25.2786 15.2401 24.5414V1.45887C15.2401 0.72168 14.6386 0.120117 13.9014 0.120117ZM21.2295 4.83637L20.6017 5.76168C23.0845 7.22074 24.7601 9.91574 24.7601 13.0001C24.7601 16.0845 23.0845 18.7795 20.6017 20.2386L21.2295 21.1639C24.0098 19.5014 25.8801 16.4695 25.8801 13.0001C25.8801 9.53074 24.0098 6.49887 21.2295 4.83637ZM19.3417 7.6123L18.7073 8.54418C20.3064 9.39074 21.4001 11.0686 21.4001 13.0001C21.4001 14.9317 20.3064 16.6095 18.7073 17.4561L19.3417 18.3879C21.2361 17.3336 22.5201 15.3167 22.5201 13.0001C22.5201 10.6836 21.2361 8.66668 19.3417 7.6123ZM1.80012 7.96012C0.874804 7.96012 0.120117 8.7148 0.120117 9.64012V16.3601C0.120117 17.2854 0.874804 18.0401 1.80012 18.0401H4.60012V7.96012H1.80012ZM17.4364 10.4167L16.7823 11.3814C17.5042 11.5695 18.0401 12.2192 18.0401 13.0001C18.0401 13.7811 17.5042 14.4307 16.7823 14.6189L17.4364 15.5836C18.447 15.1592 19.1601 14.1617 19.1601 13.0001C19.1601 11.8386 18.447 10.8389 17.4364 10.4167Z" fill="#D4D9E0"/>
</svg>
