<svg width="25" height="23" viewBox="0 0 25 23" fill="none" xmlns="http://www.w3.org/2000/svg">
<path d="M17.2866 0.668945H2.82715C1.26807 0.668945 0 1.93701 0 3.49609V16.167C0 16.7671 0.678662 17.1054 1.15771 16.7632L5.18457 13.8901C5.52246 13.6494 5.91992 13.522 6.33496 13.522H15.1919C16.751 13.522 18.019 12.2539 18.019 10.6948V1.40137C18.019 0.99707 17.6909 0.668945 17.2866 0.668945ZM13.729 9.5415H5.2666C4.8623 9.5415 4.53418 9.21387 4.53418 8.80908C4.53418 8.40479 4.8623 8.07666 5.2666 8.07666H13.729C14.1333 8.07666 14.4614 8.40479 14.4614 8.80908C14.4614 9.21387 14.1333 9.5415 13.729 9.5415ZM13.729 6.12354H5.2666C4.8623 6.12354 4.53418 5.7959 4.53418 5.39111C4.53418 4.98682 4.8623 4.65869 5.2666 4.65869H13.729C14.1333 4.65869 14.4614 4.98682 14.4614 5.39111C14.4614 5.7959 14.1333 6.12354 13.729 6.12354Z" fill="#264066"/>
<path d="M25 9.17725V21.8477C25 22.4437 24.3247 22.7885 23.8423 22.4438L19.8154 19.5713C19.4775 19.3306 19.0801 19.2031 18.665 19.2031H9.8081C8.24902 19.2031 6.98096 17.9346 6.98096 16.3755V14.9868H15.1919C17.5586 14.9868 19.4839 13.0615 19.4839 10.6948V6.34961H22.1728C23.7319 6.34961 25 7.61816 25 9.17725Z" fill="#264066"/>
</svg>
