<svg width="80" height="80" viewBox="0 0 80 80" fill="none" xmlns="http://www.w3.org/2000/svg">
<path d="M52.5 5H47.07C46.04 2.09 43.26 0 40 0C36.74 0 33.96 2.09 32.925 5H27.5C26.12 5 25 6.12 25 7.5V17.5C25 18.88 26.12 20 27.5 20H52.5C53.88 20 55 18.88 55 17.5V7.5C55 6.12 53.88 5 52.5 5Z" fill="#F5C1BC"/>
<path fill-rule="evenodd" clip-rule="evenodd" d="M60 10H65C67.805 10 70 12.195 70 15V75C70 77.805 67.805 80 65 80H15C12.195 80 10 77.805 10 75V15C10 12.245 12.245 10 15 10H20V17.5C20 21.635 23.365 25 27.5 25H52.5C56.635 25 60 21.635 60 17.5V10ZM20.3333 33.3333C19.2288 33.3333 18.3333 34.2288 18.3333 35.3333V37.1667C18.3333 38.2712 19.2288 39.1667 20.3333 39.1667H59.6667C60.7712 39.1667 61.6667 38.2712 61.6667 37.1667V35.3333C61.6667 34.2288 60.7712 33.3333 59.6667 33.3333H20.3333ZM18.3333 47.8333C18.3333 46.7288 19.2288 45.8333 20.3333 45.8333H59.6667C60.7712 45.8333 61.6667 46.7288 61.6667 47.8333V49.6667C61.6667 50.7712 60.7712 51.6667 59.6667 51.6667H20.3333C19.2288 51.6667 18.3333 50.7712 18.3333 49.6667V47.8333ZM20.3333 58.3333C19.2288 58.3333 18.3333 59.2288 18.3333 60.3333V62.1667C18.3333 63.2712 19.2288 64.1667 20.3333 64.1667H59.6667C60.7712 64.1667 61.6667 63.2712 61.6667 62.1667V60.3333C61.6667 59.2288 60.7712 58.3333 59.6667 58.3333H20.3333Z" fill="#F5C1BC"/>
</svg>
