<svg width="24" height="24" fill="none" xmlns="http://www.w3.org/2000/svg"><g clip-path="url(#clip0)" fill="#264066"><path d="M22.353 1.648a5.625 5.625 0 00-7.955 0l-4.701 4.7c-2.273 2.273-2.062 5.894 0 7.956.345.345.727.627 1.13.858l.858-.858c.563-.563.365-1.221.355-1.696a2.712 2.712 0 01-.355-.293c-1.058-1.058-1.105-2.872 0-3.977l4.702-4.702a2.815 2.815 0 013.977 0 2.815 2.815 0 010 3.978l-3.108 3.107c.09.498.63 1.675.352 3.618.014-.013.03-.022.043-.035l4.702-4.701a5.625 5.625 0 000-7.955z"/><path d="M14.668 9.332a5.354 5.354 0 00-1.13-.858l-.859.858c-.563.563-.364 1.22-.354 1.696.123.087.243.182.354.293 1.058 1.058 1.106 2.872 0 3.977l-5.065 5.066a2.815 2.815 0 01-3.978 0 2.815 2.815 0 010-3.978l3.472-3.471c-.09-.498-.63-1.675-.352-3.618-.013.013-.03.022-.043.035l-5.066 5.066a5.625 5.625 0 007.955 7.955l5.066-5.066c2.23-2.23 2.108-5.847 0-7.955z"/></g><defs><clipPath id="clip0"><path fill="#fff" d="M0 0h24v24H0z"/></clipPath></defs></svg>