<svg width="80" height="80" fill="none" xmlns="http://www.w3.org/2000/svg"><g clip-path="url(#clip0)" fill="#F5C1BC"><path d="M17.027 72.12A14.846 14.846 0 016.19 67.428a14.856 14.856 0 00-4.072 10.229A2.344 2.344 0 004.461 80h25.133a2.344 2.344 0 002.344-2.344c0-3.956-1.55-7.557-4.072-10.229a14.846 14.846 0 01-10.838 4.694zm56.786-4.692a14.846 14.846 0 01-10.838 4.693 14.846 14.846 0 01-10.838-4.693 14.857 14.857 0 00-4.072 10.228A2.344 2.344 0 0050.407 80H75.54a2.344 2.344 0 002.344-2.344 14.86 14.86 0 00-4.072-10.228z"/><path d="M19.383 67.14c5.48-1.296 8.872-6.788 7.577-12.268s-6.788-8.873-12.268-7.577c-5.48 1.295-8.872 6.788-7.577 12.268s6.788 8.872 12.268 7.577zm50.787-2.694c3.983-3.982 3.983-10.438 0-14.42-3.981-3.982-10.437-3.982-14.419 0-3.982 3.982-3.982 10.438 0 14.42 3.982 3.982 10.438 3.982 14.42 0zM50.148 42.3a16.278 16.278 0 007.979-2.48c2.432 1.098 4.149 2.141 4.167 2.152a2.343 2.343 0 003.568-1.998c0-3.005-.404-5.664-1.203-7.925a16.31 16.31 0 001.203-6.186c0-5.098-2.33-9.662-5.982-12.683a25.743 25.743 0 011.262 7.979c0 8.728-4.35 16.459-10.994 21.14z"/><path d="M15.337 42.018a2.344 2.344 0 002.369-.045c.027-.017 2.534-1.541 6.032-3.09a20.967 20.967 0 0011.56 3.435c11.667 0 21.158-9.492 21.158-21.16C56.456 9.493 46.965 0 35.298 0c-11.668 0-21.16 9.492-21.16 21.159 0 2.863.559 5.626 1.66 8.229-1.101 2.988-1.66 6.543-1.66 10.586 0 .848.46 1.63 1.199 2.044zm29.368-18.515c-1.314 0-2.287-1.074-2.344-2.344-.056-1.266 1.118-2.344 2.344-2.344 1.314 0 2.287 1.074 2.344 2.344.056 1.265-1.118 2.344-2.344 2.344zm-9.407-4.688c1.313 0 2.286 1.074 2.343 2.344.057 1.265-1.117 2.344-2.343 2.344-1.314 0-2.287-1.074-2.344-2.344-.057-1.266 1.118-2.344 2.344-2.344zm-9.408 0c1.314 0 2.287 1.074 2.344 2.344.056 1.265-1.118 2.344-2.344 2.344-1.314 0-2.287-1.074-2.344-2.344-.056-1.266 1.118-2.344 2.344-2.344z"/></g><defs><clipPath id="clip0"><path fill="#fff" d="M0 0h80v80H0z"/></clipPath></defs></svg>