<svg width="19" height="19" fill="none" xmlns="http://www.w3.org/2000/svg"><g clip-path="url(#clip0)" fill="#264066"><path d="M15.267.5H3.733A3.237 3.237 0 00.5 3.733v11.534A3.237 3.237 0 003.733 18.5h11.534a3.236 3.236 0 003.233-3.233V3.733A3.236 3.236 0 0015.267.5zm.445 14.047h-5.77c-.506 1.5-2.636 1.503-3.144 0h-3.51c-.7 0-.7-1.059 0-1.059h3.51c.507-1.5 2.637-1.503 3.145 0h5.769c.7 0 .7 1.06 0 1.06zm0-4.518H14.46c-.507 1.501-2.637 1.504-3.145 0H3.288c-.7 0-.7-1.058 0-1.058h8.028c.507-1.501 2.637-1.504 3.145 0h1.25c.701 0 .701 1.058 0 1.058zm0-4.517H7.684c-.507 1.5-2.637 1.503-3.145 0H3.29c-.701 0-.701-1.06 0-1.06h1.25c.507-1.5 2.637-1.502 3.145 0h8.028c.7 0 .7 1.06 0 1.06z"/><path d="M8.37 13.418c-.793 0-.793 1.2 0 1.2.794 0 .794-1.2 0-1.2zM6.11 4.382c-.793 0-.793 1.2 0 1.2.795 0 .794-1.2 0-1.2zM12.888 8.9c-.794 0-.793 1.2 0 1.2.794 0 .794-1.2 0-1.2z"/></g><defs><clipPath id="clip0"><path fill="#fff" transform="translate(.5 .5)" d="M0 0h18v18H0z"/></clipPath></defs></svg>