<svg width="18" height="20" fill="none" xmlns="http://www.w3.org/2000/svg"><path d="M15.984 13.92c-1.166-1.033-2.352-1.661-3.503-.627l-.69.621c-.502.455-1.439 2.57-5.057-1.743-3.618-4.305-1.466-4.976-.96-5.424l.692-.625c1.146-1.034.713-2.335-.115-3.677l-.497-.81C5.024.298 4.117-.58 2.969.45l-.621.564C1.838 1.397.419 2.643.075 5.01-.34 7.848.97 11.1 3.964 14.668 6.955 18.238 9.887 20.03 12.66 20a5.772 5.772 0 004.137-1.775l.62-.564c1.149-1.03.436-2.082-.732-3.116l-.7-.624z" fill="#264066"/></svg>