<svg width="26" height="26" fill="none" xmlns="http://www.w3.org/2000/svg"><path d="M13.901.12c-.371 0-.73.158-.982.429L5.72 7.96v10.08l7.2 7.411a1.338 1.338 0 002.32-.91V1.46c0-.738-.6-1.34-1.339-1.34zm7.329 4.716l-.628.926C23.084 7.22 24.76 9.916 24.76 13c0 3.084-1.676 5.78-4.158 7.239l.628.925c2.78-1.663 4.65-4.695 4.65-8.164 0-3.47-1.87-6.501-4.65-8.164zm-1.888 2.776l-.635.932A5.043 5.043 0 0121.4 13a5.043 5.043 0 01-2.693 4.456l.635.932A6.164 6.164 0 0022.52 13a6.164 6.164 0 00-3.178-5.388zM1.8 7.96c-.925 0-1.68.755-1.68 1.68v6.72c0 .925.755 1.68 1.68 1.68h2.8V7.96H1.8zm15.636 2.457l-.654.964a1.675 1.675 0 011.258 1.62c0 .78-.536 1.43-1.258 1.618l.654.965A2.807 2.807 0 0019.16 13a2.804 2.804 0 00-1.724-2.583z" fill="#D4D9E0"/></svg>