<svg width="40" height="36" fill="none" xmlns="http://www.w3.org/2000/svg"><path d="M19.595 5.303l.405.56.405-.56a12.362 12.362 0 012.442-2.55C24.623 1.378 26.63.686 28.826.686c2.951 0 5.658 1.18 7.633 3.322 1.953 2.119 3.041 5.026 3.041 8.2 0 3.239-1.2 6.227-3.852 9.426h0c-2.388 2.88-5.83 5.816-9.87 9.259h0l-.034.03a463.657 463.657 0 00-4.527 3.894h0a1.846 1.846 0 01-2.434 0h0a468.935 468.935 0 00-4.556-3.92l-.004-.003h0c-4.042-3.444-7.483-6.38-9.87-9.26C1.7 18.435.5 15.448.5 12.21c0-3.174 1.088-6.081 3.04-8.2C5.516 1.867 8.224.687 11.175.687c2.196 0 4.203.692 5.979 2.066h0a12.35 12.35 0 012.442 2.55z" fill="#fff" stroke="#264066"/></svg>