<svg width="30" height="45" fill="none" xmlns="http://www.w3.org/2000/svg"><path d="M28.688 42.416c0-.123.123-4.43-2.585-6.89-.246-.247-.615-.247-.984 0-.123.122-2.953 2.214-5.66 0-.247-.247-.739-.247-.985 0l-.861.86a6.475 6.475 0 00-1.477-1.722c-.246-.246-.615-.246-.984 0-.123.123-4.43 3.322-8.368 0-.246-.246-.738-.246-.984 0-.123.123-3.692 3.322-3.815 9.598 0 .246.123.37.246.492.123.123.37.247.492.247h16.243c.37 0 .739-.37.739-.739v-1.107h8.121c.492 0 .861-.37.861-.739zm-6.904-27.14H16v1.722c0 .862.738 1.6 1.6 1.6h5.168l1.476 1.723c.124.123.247.246.37.246h.246a.677.677 0 00.369-.615l-.123-1.23h2.584c.861 0 1.6-.74 1.6-1.6V10.6c0-.862-.739-1.6-1.6-1.6h-3.569v3.938c.123 1.23-.984 2.338-2.337 2.338z" fill="#F5C1BC"/><path d="M0 11.813c0 1.354 1.107 2.338 2.338 2.338h6.399l-.123 2.338c0 .246.123.492.369.615h.246c.123 0 .37-.123.492-.246l2.461-2.707h7.876c1.353 0 2.338-1.107 2.338-2.338V2.338C22.396.984 21.288 0 20.058 0H2.338C1.108 0 0 1.107 0 2.338v9.475zM22.288 34.99a4.929 4.929 0 003.569-1.476 4.928 4.928 0 001.476-3.568c0-2.83-2.338-5.045-5.045-5.045a4.928 4.928 0 00-3.569 1.476c-.246.246-.492.616-.738.985v-.739a6.88 6.88 0 00-6.89-6.89c-1.847 0-3.57.738-4.923 2.091-1.354 1.354-2.092 3.077-2.092 4.922 0 3.692 3.076 6.891 6.891 6.891 1.846 0 3.569-.738 4.922-2.091.492-.493.985-1.108 1.23-1.723v.123c0 2.83 2.339 5.045 5.169 5.045z" fill="#F5C1BC"/></svg>