<svg width="81" height="80" fill="none" xmlns="http://www.w3.org/2000/svg"><path d="M51.054 34.58a490.612 490.612 0 013.457 2.953c1.1.95 2.72.948 3.821 0 .879-.757 2.125-1.82 4.158-3.523 7.371-6.19 12.697-10.66 12.697-17.261 0-6.258-4.597-11.16-10.466-11.16-3.943 0-6.559 2.224-8.201 4.49-1.556-2.273-4.085-4.49-8.038-4.49-5.87 0-10.464 4.902-10.464 11.16 0 6.769 5.186 11.17 13.036 17.831zm-37.67 38.565c6.146-4.175 12.87-5.77 20.19-4.55l11.728 2.017c4.504.75 8.632.516 12.198-.657 7.376-2.458 14.76-10.2 16.717-13.136 2.721-4.081 4.216-8.538 5.155-10.696.891-2.064.891-3.519-.047-4.363-1.08-.986-2.909-.47-4.27.281-2.158 1.22-4.45 4.739-6.796 8.116-3.05 4.41-8.273 7.038-13.62 7.038H37.654v-4.692h7.037c12.48 0 18.062-2.346 18.062-4.691 0-1.97-3.894-2.862-5.207-3.143-5.114-1.173-16.655-1.736-24.537-5.255a12.078 12.078 0 00-4.738-.985c-2.673-.023-5.58.81-8.35 2.955-.047 0-.047 0-.095.047-1.83 1.408-4.331 3.472-7.71 6.428-2.861 2.533-5.629 5.77-10.461 9.898l-.432.372a1.765 1.765 0 00-.254 2.404l9.528 12.55c.567.746 1.617.92 2.393.395l.493-.333z" fill="#F5C1BC"/></svg>