<svg width="18" height="18" fill="none" xmlns="http://www.w3.org/2000/svg"><g clip-path="url(#clip0)" fill="#264066"><path d="M17.661 6.234L9.223 2.577a.562.562 0 00-.447 0L.338 6.234a.563.563 0 000 1.032l8.438 3.656a.562.562 0 00.447 0l5.964-2.584v5.99c0 .303.233.564.536.578a.562.562 0 00.59-.562v-6.21a.176.176 0 00-.154-.175l-7.232-.933a.563.563 0 01.104-1.12c.026.002 8.042 1.037 8.036 1.036.15.02.273.115.332.245a.178.178 0 00.238.09.562.562 0 00.024-1.044z"/><path d="M8.33 11.955l-4.71-2.04a.176.176 0 00-.245.16v2.02c0 1.892 2.47 3.374 5.625 3.374s5.626-1.482 5.626-3.375v-2.018a.176.176 0 00-.246-.161l-4.709 2.04a1.686 1.686 0 01-1.342 0z"/></g><defs><clipPath id="clip0"><path fill="#fff" d="M0 0h18v18H0z"/></clipPath></defs></svg>