<svg width="10" height="10" fill="none" xmlns="http://www.w3.org/2000/svg"><path d="M9.207 1.418a2.689 2.689 0 00-2-.871c-.578 0-1.106.182-1.572.542A3.215 3.215 0 005 1.753c-.188-.26-.4-.482-.635-.664A2.515 2.515 0 002.793.547a2.69 2.69 0 00-2 .87C.282 1.973 0 2.73 0 3.553c0 .846.315 1.62.992 2.437.605.73 1.475 1.471 2.483 2.33.344.293.734.625 1.138.98a.586.586 0 00.773 0c.405-.355.795-.687 1.14-.98 1.007-.859 1.877-1.6 2.482-2.33.677-.817.992-1.591.992-2.437 0-.822-.282-1.58-.793-2.134z" fill="#8D9AAE"/></svg>