<svg width="24" height="24" fill="none" xmlns="http://www.w3.org/2000/svg"><g clip-path="url(#clip0)"><path d="M23.352 10.439l-.001-.002-9.79-9.79A2.194 2.194 0 0011.998 0c-.59 0-1.144.23-1.562.647L.651 10.432l-.01.01a2.212 2.212 0 00.004 3.12 2.197 2.197 0 001.535.648h.39v7.204A2.589 2.589 0 005.156 24h3.83a.703.703 0 00.703-.703v-5.649c0-.65.53-1.18 1.18-1.18h2.259c.65 0 1.18.53 1.18 1.18v5.649c0 .388.315.703.703.703h3.83a2.589 2.589 0 002.586-2.586V14.21h.362c.59 0 1.145-.23 1.562-.648.86-.86.861-2.261.001-3.123z" fill="#8D9AAE"/></g><defs><clipPath id="clip0"><path fill="#fff" d="M0 0h24v24H0z"/></clipPath></defs></svg>