<svg width="46" height="45" fill="none" xmlns="http://www.w3.org/2000/svg"><g clip-path="url(#clip0)" fill="#F5C1BC"><path d="M36.225 2.375c-1.145-1.054-2.61-1.56-4.086-1.56-1.661 0-3.34.641-4.59 1.867l-.537.525-.537-.527A6.593 6.593 0 0021.884.815c-1.476 0-2.94.506-4.085 1.56a5.879 5.879 0 00-.135 8.57l9.348 9.144 9.347-9.145a5.879 5.879 0 00-.134-8.569zm9.175 22.37c-1.437-.952-3.13-.683-4.629.164-1.499.847-10.106 8.046-10.106 8.046l-8.473.001c-.394 0-.82-.433-.82-.817 0-.452.402-.803.82-.803h5.184c1.814 0 3.845-1.157 3.845-3.213 0-2.184-2.03-3.212-3.845-3.212-3.148 0-3.76.012-3.76.012-1.261 0-2.54-.073-3.525-.59a9.898 9.898 0 00-4.443-1.03c-2.713 0-5.141 1.058-6.806 2.727L0 34.547l9.852 9.637 3.284-3.213h16.628a6.846 6.846 0 004.488-1.668l11.26-12.356c.687-.597.648-1.696-.112-2.202z"/></g><defs><clipPath id="clip0"><path fill="#fff" d="M0 0h46v45H0z"/></clipPath></defs></svg>