<svg width="25" height="25" fill="none" xmlns="http://www.w3.org/2000/svg"><path d="M12.5 0a6.583 6.583 0 00-6.592 6.592c0 2.286 1.225 4.447 3.199 5.638 1.272.761 2.225 1.95 2.735 3.472.122.252.404.35.684.35s.562-.221.684-.473a6.13 6.13 0 012.686-3.35 6.628 6.628 0 003.196-5.637A6.587 6.587 0 0012.5 0zm0 10.254a.732.732 0 110-1.465.732.732 0 010 1.465zm.742-3.058c0 .404-.333.796-.737.796-.405 0-.738-.263-.738-.668 0-.739.395-1.297.98-1.507a.732.732 0 11-2.445-.69A2.2 2.2 0 0112.5 2.93a2.2 2.2 0 012.197 2.197c0 .925-.585 1.757-1.455 2.07z" fill="#264066"/><path d="M24.268 7.324h-.733v12.549a2.2 2.2 0 01-2.197 2.197h-6.766a2.202 2.202 0 01-2.072 1.465 2.2 2.2 0 01-2.072-1.465H3.662a2.2 2.2 0 01-2.197-2.197V7.324H.732A.732.732 0 000 8.057v14.746c0 .405.328.732.732.732h8.535l1.25 1.25a.732.732 0 00.518.215h2.93c.194 0 .38-.077.518-.215l1.25-1.25h8.535a.732.732 0 00.732-.732V8.057a.732.732 0 00-.732-.733z" fill="#264066"/><path d="M10.483 16.257c-.047-.09-.45-1.766-2.129-2.77-2.414-1.457-3.91-4.099-3.91-6.895 0-.735.088-1.409.271-2.06.012-.047.035-.09.048-.137H3.711a.732.732 0 00-.732.732v14.746c0 .405.327.732.732.732h7.324c.404 0 .733.329.733.733v-3.95c-.982-.316-1.261-1.1-1.285-1.131zM21.29 4.395h-1.058c.019.065.05.124.066.19.17.602.259 1.27.259 2.007 0 2.796-1.496 5.437-3.903 6.89-1.68 1.005-2.006 2.512-2.126 2.737a2.338 2.338 0 01-1.296 1.157v3.962c0-.404.329-.733.733-.733h7.324a.732.732 0 00.732-.732V5.127a.732.732 0 00-.732-.732z" fill="#264066"/></svg>