<svg width="45" height="45" fill="none" xmlns="http://www.w3.org/2000/svg"><g clip-path="url(#clip0)" fill="#F5C1BC"><path d="M18.049 45a5.32 5.32 0 100-10.64 5.32 5.32 0 000 10.64zm15.525-10.639a5.32 5.32 0 100 10.64 5.32 5.32 0 000-10.64zm9.065-5.428H14.9l-.542-3.149h22.798a1.628 1.628 0 001.52-1.031l5.428-13.68a1.628 1.628 0 00-1.52-2.225H11.535l-1.303-7.49A1.628 1.628 0 008.604 0H2.36a1.628 1.628 0 000 3.257h4.886l4.668 27.575a1.629 1.629 0 001.629 1.358h29.095a1.628 1.628 0 100-3.257z"/></g><defs><clipPath id="clip0"><path fill="#fff" d="M0 0h45v45H0z"/></clipPath></defs></svg>