<svg width="80" height="80" fill="none" xmlns="http://www.w3.org/2000/svg"><path d="M52.5 5h-5.43C46.04 2.09 43.26 0 40 0c-3.26 0-6.04 2.09-7.075 5H27.5A2.5 2.5 0 0025 7.5v10a2.5 2.5 0 002.5 2.5h25a2.5 2.5 0 002.5-2.5v-10A2.5 2.5 0 0052.5 5z" fill="#F5C1BC"/><path fill-rule="evenodd" clip-rule="evenodd" d="M60 10h5c2.805 0 5 2.195 5 5v60c0 2.805-2.195 5-5 5H15c-2.805 0-5-2.195-5-5V15c0-2.755 2.245-5 5-5h5v7.5c0 4.135 3.365 7.5 7.5 7.5h25c4.135 0 7.5-3.365 7.5-7.5V10zM20.333 33.333a2 2 0 00-2 2v1.834a2 2 0 002 2h39.334a2 2 0 002-2v-1.834a2 2 0 00-2-2H20.333zm-2 14.5a2 2 0 012-2h39.334a2 2 0 012 2v1.834a2 2 0 01-2 2H20.333a2 2 0 01-2-2v-1.834zm2 10.5a2 2 0 00-2 2v1.834a2 2 0 002 2h39.334a2 2 0 002-2v-1.834a2 2 0 00-2-2H20.333z" fill="#F5C1BC"/></svg>