<svg width="24" height="24" viewBox="0 0 24 24" fill="none" xmlns="http://www.w3.org/2000/svg">
<path d="M23.2334 21.8602L17.5214 15.9194C18.99 14.1735 19.7947 11.9768 19.7947 9.68999C19.7947 4.34701 15.4477 0 10.1047 0C4.76175 0 0.414734 4.34701 0.414734 9.68999C0.414734 15.033 4.76175 19.38 10.1047 19.38C12.1106 19.38 14.022 18.775 15.6562 17.6265L21.4117 23.6124C21.6522 23.8622 21.9758 24 22.3225 24C22.6507 24 22.9621 23.8749 23.1984 23.6474C23.7006 23.1641 23.7166 22.3628 23.2334 21.8602ZM10.1047 2.52782C14.054 2.52782 17.2669 5.74069 17.2669 9.68999C17.2669 13.6393 14.054 16.8522 10.1047 16.8522C6.15542 16.8522 2.94256 13.6393 2.94256 9.68999C2.94256 5.74069 6.15542 2.52782 10.1047 2.52782Z" fill="white"/>
</svg>
