<svg width="46" height="45" viewBox="0 0 46 45" fill="none" xmlns="http://www.w3.org/2000/svg">
<g clip-path="url(#clip0)">
<path d="M36.2246 2.3751C35.0801 1.3214 33.6155 0.81543 32.1394 0.81543C30.4778 0.81543 28.7997 1.45632 27.5486 2.68189L27.0116 3.20713L26.4747 2.68028C25.2236 1.45632 23.5455 0.81543 21.8839 0.81543C20.4078 0.81543 18.9431 1.3214 17.7987 2.3751C15.2816 4.69291 15.2373 8.57039 17.6641 10.9444L27.0116 20.0888L36.3592 10.9444C38.786 8.57039 38.7417 4.69291 36.2246 2.3751Z" fill="#F5C1BC"/>
<path d="M45.3997 24.7451C43.963 23.7926 42.2701 24.0625 40.771 24.909C39.272 25.7555 30.6649 32.9547 30.6649 32.9547L22.1925 32.9563C21.7984 32.9563 21.3715 32.5226 21.3715 32.1387C21.3715 31.6873 21.7738 31.3356 22.1925 31.3356H27.3761C29.1904 31.3356 31.2215 30.1791 31.2215 28.1231C31.2215 25.9386 29.1904 24.9106 27.3761 24.9106C24.2285 24.9106 23.616 24.9234 23.616 24.9234C22.355 24.9234 21.076 24.8495 20.0908 24.3339C18.7772 23.6754 17.2634 23.3027 15.6477 23.3027C12.9352 23.3027 10.5068 24.3613 8.84186 26.0301L0 34.5465L9.85165 44.1839L13.1355 40.9714H29.7635C31.4186 40.9714 33.0162 40.3771 34.2525 39.3026L45.5113 26.9473C46.1993 26.3498 46.1599 25.2511 45.3997 24.7451Z" fill="#F5C1BC"/>
</g>
<defs>
<clipPath id="clip0">
<rect width="46" height="45" fill="white"/>
</clipPath>
</defs>
</svg>
