<svg width="243" height="39" viewBox="0 0 243 39" fill="none" xmlns="http://www.w3.org/2000/svg">
<path d="M18.9695 0.896242C19.4211 -0.298746 21.0355 -0.298748 21.4871 0.89624L25.6947 12.0298C25.8877 12.5407 26.345 12.8887 26.8684 12.9232L38.2756 13.6752C39.4999 13.7559 39.9988 15.3644 39.0535 16.1836L30.2468 23.8165C29.8428 24.1667 29.6681 24.7299 29.7985 25.2621L32.6409 36.8604C32.946 38.1052 31.64 39.0994 30.6042 38.4107L20.9537 31.9945C20.5109 31.7001 19.9457 31.7001 19.5029 31.9945L9.85246 38.4107C8.81666 39.0994 7.51062 38.1052 7.8157 36.8604L10.6581 25.2621C10.7885 24.7299 10.6139 24.1667 10.2098 23.8165L1.40308 16.1836C0.457837 15.3644 0.956702 13.7559 2.18105 13.6752L13.5882 12.9232C14.1116 12.8887 14.5689 12.5407 14.7619 12.0298L18.9695 0.896242Z" fill="#F5C1BC"/>
<path d="M69.6062 0.896242C70.0578 -0.298746 71.6722 -0.298748 72.1238 0.89624L76.3314 12.0298C76.5244 12.5407 76.9818 12.8887 77.5052 12.9232L88.9123 13.6752C90.1366 13.7559 90.6355 15.3644 89.6903 16.1836L80.8836 23.8165C80.4795 24.1667 80.3048 24.7299 80.4352 25.2621L83.2776 36.8604C83.5827 38.1052 82.2767 39.0994 81.2409 38.4107L71.5905 31.9945C71.1477 31.7001 70.5824 31.7001 70.1396 31.9945L60.4892 38.4107C59.4534 39.0994 58.1473 38.1052 58.4524 36.8604L61.2948 25.2621C61.4253 24.7299 61.2506 24.1667 60.8465 23.8165L52.0398 16.1836C51.0946 15.3644 51.5934 13.7559 52.8178 13.6752L64.2249 12.9232C64.7483 12.8887 65.2056 12.5407 65.3987 12.0298L69.6062 0.896242Z" fill="#F5C1BC"/>
<path d="M120.243 0.896242C120.695 -0.298746 122.309 -0.298748 122.761 0.89624L126.968 12.0298C127.161 12.5407 127.618 12.8887 128.142 12.9232L139.549 13.6752C140.773 13.7559 141.272 15.3644 140.327 16.1836L131.52 23.8165C131.116 24.1667 130.942 24.7299 131.072 25.2621L133.914 36.8604C134.219 38.1052 132.913 39.0994 131.878 38.4107L122.227 31.9945C121.784 31.7001 121.219 31.7001 120.776 31.9945L111.126 38.4107C110.09 39.0994 108.784 38.1052 109.089 36.8604L111.932 25.2621C112.062 24.7299 111.887 24.1667 111.483 23.8165L102.677 16.1836C101.731 15.3644 102.23 13.7559 103.454 13.6752L114.862 12.9232C115.385 12.8887 115.842 12.5407 116.035 12.0298L120.243 0.896242Z" fill="#F5C1BC"/>
<path d="M170.878 0.896242C171.329 -0.298746 172.944 -0.298748 173.395 0.89624L177.603 12.0298C177.796 12.5407 178.253 12.8887 178.777 12.9232L190.184 13.6752C191.408 13.7559 191.907 15.3644 190.962 16.1836L182.155 23.8165C181.751 24.1667 181.576 24.7299 181.707 25.2621L184.549 36.8604C184.854 38.1052 183.548 39.0994 182.512 38.4107L172.862 31.9945C172.419 31.7001 171.854 31.7001 171.411 31.9945L161.761 38.4107C160.725 39.0994 159.419 38.1052 159.724 36.8604L162.566 25.2621C162.697 24.7299 162.522 24.1667 162.118 23.8165L153.311 16.1836C152.366 15.3644 152.865 13.7559 154.089 13.6752L165.496 12.9232C166.02 12.8887 166.477 12.5407 166.67 12.0298L170.878 0.896242Z" fill="#F5C1BC"/>
<path d="M221.514 0.896242C221.966 -0.298746 223.58 -0.298748 224.032 0.89624L228.24 12.0298C228.433 12.5407 228.89 12.8887 229.413 12.9232L240.82 13.6752C242.045 13.7559 242.544 15.3644 241.598 16.1836L232.792 23.8165C232.388 24.1667 232.213 24.7299 232.343 25.2621L235.186 36.8604C235.491 38.1052 234.185 39.0994 233.149 38.4107L223.499 31.9945C223.056 31.7001 222.491 31.7001 222.048 31.9945L212.397 38.4107C211.362 39.0994 210.056 38.1052 210.361 36.8604L213.203 25.2621C213.333 24.7299 213.159 24.1667 212.755 23.8165L203.948 16.1836C203.003 15.3644 203.502 13.7559 204.726 13.6752L216.133 12.9232C216.657 12.8887 217.114 12.5407 217.307 12.0298L221.514 0.896242Z" fill="#F5C1BC"/>
</svg>
