<svg width="17" height="18" viewBox="0 0 17 18" fill="none" xmlns="http://www.w3.org/2000/svg">
<path d="M7.94613 0.894347C8.14484 0.368552 8.85516 0.368551 9.05387 0.894346L10.9052 5.79312C10.9902 6.0179 11.1914 6.17106 11.4217 6.18624L16.4408 6.51708C16.9795 6.55259 17.199 7.26034 16.7831 7.62081L12.9082 10.9793C12.7304 11.1334 12.6535 11.3812 12.7109 11.6153L13.9616 16.7186C14.0958 17.2663 13.5211 17.7038 13.0654 17.4007L8.81919 14.5776C8.62436 14.4481 8.37564 14.4481 8.18081 14.5776L3.93462 17.4007C3.47887 17.7038 2.90421 17.2663 3.03845 16.7186L4.28911 11.6153C4.34649 11.3812 4.26964 11.1334 4.09184 10.9793L0.216885 7.62081C-0.199021 7.26034 0.02048 6.55259 0.559195 6.51708L5.57834 6.18624C5.80864 6.17106 6.00985 6.0179 6.0948 5.79312L7.94613 0.894347Z" fill="#264066"/>
</svg>
