<svg width="24" height="24" viewBox="0 0 24 24" fill="none" xmlns="http://www.w3.org/2000/svg">
<g clip-path="url(#clip0)">
<path d="M22.3528 1.64757C20.1561 -0.549182 16.5946 -0.549182 14.3979 1.64752L9.69658 6.3488C7.42431 8.62116 7.63469 12.2418 9.69658 14.3038C10.0419 14.6491 10.4239 14.9306 10.8273 15.1618L11.6853 14.3038C12.2481 13.7409 12.05 13.0829 12.0399 12.6081C11.9164 12.5206 11.7962 12.4259 11.6853 12.315C10.6272 11.257 10.5797 9.44321 11.6853 8.33752C11.8495 8.17332 16.2869 3.73599 16.3865 3.63633C17.4834 2.53951 19.2672 2.53951 20.364 3.63633C21.4608 4.73316 21.4608 6.51699 20.364 7.61382L17.2565 10.7213C17.3464 11.2185 17.8857 12.3963 17.6083 14.3392C17.6218 14.3258 17.638 14.3173 17.6515 14.3038L22.3528 9.60254C24.5495 7.40579 24.5495 3.84432 22.3528 1.64757Z" fill="#264066"/>
<path d="M14.668 9.33217C14.3228 8.98689 13.9407 8.70536 13.5374 8.47412L12.6793 9.33217C12.1165 9.89495 12.3146 10.5529 12.3247 11.0277C12.4483 11.1153 12.5684 11.2099 12.6793 11.3208C13.7374 12.3789 13.785 14.1926 12.6793 15.2983C12.5148 15.4629 7.70988 20.2678 7.61374 20.3639C6.51691 21.4607 4.73309 21.4607 3.63626 20.3639C2.53943 19.2671 2.53943 17.4833 3.63626 16.3864L7.10815 12.9145C7.01829 12.4173 6.47894 11.2396 6.7564 9.29668C6.74285 9.31 6.72654 9.31867 6.71304 9.33212L1.64749 14.3978C-0.549164 16.5945 -0.549164 20.156 1.64749 22.3527C3.84424 24.5494 7.40566 24.5494 9.60241 22.3527L14.668 17.2871C16.8981 15.057 16.7763 11.4404 14.668 9.33217Z" fill="#264066"/>
</g>
<defs>
<clipPath id="clip0">
<rect width="24" height="24" fill="white"/>
</clipPath>
</defs>
</svg>
