<svg width="30" height="45" viewBox="0 0 30 45" fill="none" xmlns="http://www.w3.org/2000/svg">
<path d="M28.6875 42.4164C28.6875 42.2933 28.8106 37.9865 26.1034 35.5254C25.8573 35.2793 25.4881 35.2793 25.119 35.5254C24.9959 35.6485 22.1657 37.7404 19.4586 35.5254C19.2125 35.2793 18.7203 35.2793 18.4741 35.5254C18.4741 35.5254 18.105 35.8946 17.6128 36.3868C17.2436 35.7715 16.7514 35.1563 16.1361 34.6641C15.89 34.418 15.5209 34.418 15.1517 34.6641C15.0287 34.7871 10.7218 37.9865 6.78416 34.6641C6.53805 34.418 6.04584 34.418 5.79974 34.6641C5.67668 34.7871 2.10816 37.9865 1.98511 44.2622C1.98511 44.5083 2.10816 44.6313 2.23121 44.7544C2.35426 44.8774 2.60037 45.0005 2.72342 45.0005H18.9664C19.3355 45.0005 19.7047 44.6313 19.7047 44.2622C19.7047 44.1391 19.7047 43.77 19.7047 43.1547H27.8261C28.3183 43.1547 28.6875 42.7855 28.6875 42.4164Z" fill="#F5C1BC"/>
<path d="M21.7835 15.2757H16V16.9984C16 17.8598 16.7383 18.5981 17.5997 18.5981H22.7679L24.2445 20.3208C24.3676 20.4439 24.4906 20.5669 24.6137 20.5669C24.7367 20.5669 24.7367 20.5669 24.8598 20.5669C25.1059 20.4439 25.2289 20.1978 25.2289 19.9517L25.1059 18.7211H27.69C28.5514 18.7211 29.2897 17.9828 29.2897 17.1215V10.5997C29.2897 9.73832 28.5514 9 27.69 9H24.1215V12.9377C24.2445 14.1682 23.137 15.2757 21.7835 15.2757Z" fill="#F5C1BC"/>
<path d="M0 11.813C0 13.1666 1.10747 14.151 2.338 14.151H8.73673L8.61368 16.489C8.61368 16.7351 8.73673 16.9812 8.98283 17.1043C9.10589 17.1043 9.10589 17.1043 9.22894 17.1043C9.35199 17.1043 9.5981 16.9812 9.72115 16.8582L12.1822 14.151H14.2741H20.0576C21.4111 14.151 22.3956 13.0436 22.3956 11.813V7.87536V2.338C22.3956 0.98442 21.2881 0 20.0576 0H2.338C1.10747 0 0 1.10747 0 2.338V11.813Z" fill="#F5C1BC"/>
<path d="M22.2879 34.9909C23.6415 34.9909 24.872 34.4987 25.8565 33.5143C26.8409 32.5299 27.3331 31.2994 27.3331 29.9458C27.3331 27.1156 24.9951 24.9006 22.2879 24.9006C20.9344 24.9006 19.7038 25.3928 18.7194 26.3773C18.4733 26.6234 18.2272 26.9925 17.9811 27.3617C17.9811 27.1156 17.9811 26.8695 17.9811 26.6234C17.9811 22.8087 14.9048 19.7324 11.0902 19.7324C9.24438 19.7324 7.52164 20.4707 6.16806 21.8243C4.81449 23.1779 4.07617 24.9006 4.07617 26.7464C4.07617 30.438 7.15249 33.6374 10.9671 33.6374C12.8129 33.6374 14.5356 32.899 15.8892 31.5455C16.3814 31.0533 16.8736 30.438 17.1197 29.8227V29.9458C17.1197 32.776 19.4577 34.9909 22.2879 34.9909Z" fill="#F5C1BC"/>
</svg>
