<?xml version="1.0" encoding="utf-8"?>
<!-- Generator: Adobe Illustrator 25.0.1, SVG Export Plug-In . SVG Version: 6.00 Build 0)  -->
<svg version="1.1" id="Слой_1" xmlns="http://www.w3.org/2000/svg" xmlns:xlink="http://www.w3.org/1999/xlink" x="0px" y="0px"
	 width="43px" height="38.6px" viewBox="0 0 43 38.6" style="enable-background:new 0 0 43 38.6;" xml:space="preserve">
<style type="text/css">
	.st0{fill:#FFFFFF;stroke:#264066;stroke-width:4;}
</style>
<path class="st0" d="M21.1,6.6l0.4,0.6l0.4-0.6c0.7-1,1.5-1.9,2.4-2.6c1.8-1.4,3.8-2.1,6-2.1c3,0,5.7,1.2,7.6,3.3c2,2.1,3,5,3,8.2
	c0,3.2-1.2,6.2-3.9,9.4h0c-2.4,2.9-5.8,5.8-9.9,9.3l0,0l0,0c-1.4,1.2-2.9,2.5-4.5,3.9l0,0c-0.3,0.3-0.8,0.5-1.2,0.5
	c-0.4,0-0.9-0.2-1.2-0.5l0,0c-1.6-1.4-3.2-2.7-4.6-3.9l0,0l0,0c-4-3.4-7.5-6.4-9.9-9.3C3.2,19.7,2,16.8,2,13.5c0-3.2,1.1-6.1,3-8.2
	C7,3.2,9.7,2,12.7,2c2.2,0,4.2,0.7,6,2.1v0C19.6,4.8,20.4,5.6,21.1,6.6z"/>
</svg>
