<svg width="18" height="20" viewBox="0 0 18 20" fill="none" xmlns="http://www.w3.org/2000/svg">
<path d="M15.9841 13.9205C14.8183 12.887 13.6319 12.259 12.4808 13.2925L11.7919 13.9144C11.2885 14.3687 10.3523 16.4845 6.73421 12.1706C3.11609 7.86584 5.26812 7.19513 5.77448 6.74697L6.46631 6.12199C7.61151 5.08849 7.17875 3.7867 6.3515 2.44528L5.85397 1.63432C5.02377 0.298999 4.11703 -0.579023 2.96889 0.451433L2.34772 1.01544C1.83841 1.39653 0.419424 2.64344 0.0749808 5.00922C-0.340117 7.84755 0.969944 11.1005 3.96395 14.6675C6.95501 18.2375 9.88719 20.0301 12.6604 19.9996C14.9655 19.9722 16.361 18.6917 16.7967 18.2253L17.4178 17.6613C18.566 16.6308 17.8535 15.579 16.6848 14.5455L15.9841 13.9205Z" fill="#264066"/>
</svg>
