<svg width="40" height="36" viewBox="0 0 40 36" fill="none" xmlns="http://www.w3.org/2000/svg">
<path d="M19.5948 5.30319L20 5.86342L20.4051 5.30321C21.1298 4.30126 21.9482 3.44763 22.8468 2.75248C24.6226 1.37931 26.6301 0.6875 28.826 0.6875C31.7771 0.6875 34.4844 1.86726 36.4592 4.00909C38.4124 6.12775 39.5 9.03542 39.5 12.2084C39.5 15.4479 38.2997 18.4355 35.6481 21.6348L35.648 21.6348C33.2605 24.5159 29.8188 27.4508 25.7783 30.894L25.7783 30.894L25.7441 30.9232C24.376 32.0892 22.8255 33.4109 21.2166 34.8178L21.2163 34.8181C20.8804 35.1122 20.4482 35.2747 20 35.2747C19.5516 35.2747 19.1197 35.1123 18.7831 34.8175L18.7828 34.8172C17.1621 33.4002 15.6016 32.0702 14.2268 30.8985L14.2226 30.8949L14.2226 30.8949C10.1815 27.4511 6.73982 24.5159 4.35225 21.6351C1.70061 18.4354 0.5 15.4479 0.5 12.2087C0.5 9.03544 1.58761 6.12778 3.54051 4.00909C5.51527 1.86727 8.22289 0.6875 11.174 0.6875C13.37 0.6875 15.3774 1.37933 17.1529 2.75251L17.1529 2.75253C18.0519 3.44766 18.8705 4.30157 19.5948 5.30319Z" fill="white" stroke="#264066"/>
</svg>
