<?xml version="1.0" encoding="utf-8"?><svg xmlns="http://www.w3.org/2000/svg" xmlns:xlink="http://www.w3.org/1999/xlink"><symbol viewBox="0 0 170 190" id="deco-dots" xmlns="http://www.w3.org/2000/svg"><path fill-rule="evenodd" clip-rule="evenodd" d="M5 10A5 5 0 105 0a5 5 0 000 10zm0 20a5 5 0 100-10 5 5 0 000 10zm5 15a5 5 0 11-10 0 5 5 0 0110 0zM5 70a5 5 0 100-10 5 5 0 000 10zm5 15a5 5 0 11-10 0 5 5 0 0110 0zm-5 25a5 5 0 100-10 5 5 0 000 10zm5 15a5 5 0 11-10 0 5 5 0 0110 0zm-5 25a5 5 0 100-10 5 5 0 000 10zm5 15a5 5 0 11-10 0 5 5 0 0110 0zm-5 25a5 5 0 100-10 5 5 0 000 10zM30 5a5 5 0 11-10 0 5 5 0 0110 0zm-5 25a5 5 0 100-10 5 5 0 000 10zm5 15a5 5 0 11-10 0 5 5 0 0110 0zm-5 25a5 5 0 100-10 5 5 0 000 10zm5 15a5 5 0 11-10 0 5 5 0 0110 0zm-5 25a5 5 0 100-10 5 5 0 000 10zm5 15a5 5 0 11-10 0 5 5 0 0110 0zm-5 25a5 5 0 100-10 5 5 0 000 10zm5 15a5 5 0 11-10 0 5 5 0 0110 0zm-5 25a5 5 0 100-10 5 5 0 000 10zM50 5a5 5 0 11-10 0 5 5 0 0110 0zm-5 25a5 5 0 100-10 5 5 0 000 10zm5 15a5 5 0 11-10 0 5 5 0 0110 0zm-5 25a5 5 0 100-10 5 5 0 000 10zm5 15a5 5 0 11-10 0 5 5 0 0110 0zm-5 25a5 5 0 100-10 5 5 0 000 10zm5 15a5 5 0 11-10 0 5 5 0 0110 0zm-5 25a5 5 0 100-10 5 5 0 000 10zm5 15a5 5 0 11-10 0 5 5 0 0110 0zm-5 25a5 5 0 100-10 5 5 0 000 10zM70 5a5 5 0 11-10 0 5 5 0 0110 0zm-5 25a5 5 0 100-10 5 5 0 000 10zm5 15a5 5 0 11-10 0 5 5 0 0110 0zm-5 25a5 5 0 100-10 5 5 0 000 10zm5 15a5 5 0 11-10 0 5 5 0 0110 0zm-5 25a5 5 0 100-10 5 5 0 000 10zm5 15a5 5 0 11-10 0 5 5 0 0110 0zm-5 25a5 5 0 100-10 5 5 0 000 10zm5 15a5 5 0 11-10 0 5 5 0 0110 0zm-5 25a5 5 0 100-10 5 5 0 000 10zM90 5a5 5 0 11-10 0 5 5 0 0110 0zm-5 25a5 5 0 100-10 5 5 0 000 10zm5 15a5 5 0 11-10 0 5 5 0 0110 0zm-5 25a5 5 0 100-10 5 5 0 000 10zm5 15a5 5 0 11-10 0 5 5 0 0110 0zm-5 25a5 5 0 100-10 5 5 0 000 10zm5 15a5 5 0 11-10 0 5 5 0 0110 0zm-5 25a5 5 0 100-10 5 5 0 000 10zm5 15a5 5 0 11-10 0 5 5 0 0110 0zm-5 25a5 5 0 100-10 5 5 0 000 10zM110 5a5 5 0 11-10 0 5 5 0 0110 0zm-5 25a5 5 0 100-10 5 5 0 000 10zm5 15a5 5 0 11-10 0 5 5 0 0110 0zm-5 25a5 5 0 100-10 5 5 0 000 10zm5 15a5 5 0 11-10 0 5 5 0 0110 0zm-5 25a5 5 0 10-.001-10.001A5 5 0 00105 110zm5 15a5 5 0 11-10.001-.001A5 5 0 01110 125zm-5 25a5 5 0 10-.001-10.001A5 5 0 00105 150zm5 15a5 5 0 11-10.001-.001A5 5 0 01110 165zm-5 25a5 5 0 10-.001-10.001A5 5 0 00105 190zM130 5a5 5 0 11-10 0 5 5 0 0110 0zm-5 25a5 5 0 100-10 5 5 0 000 10zm5 15a5 5 0 11-10 0 5 5 0 0110 0zm-5 25a5 5 0 100-10 5 5 0 000 10zm5 15a5 5 0 11-10 0 5 5 0 0110 0zm-5 25a5 5 0 10-.001-10.001A5 5 0 00125 110zm5 15a5 5 0 11-10.001-.001A5 5 0 01130 125zm-5 25a5 5 0 10-.001-10.001A5 5 0 00125 150zm5 15a5 5 0 11-10.001-.001A5 5 0 01130 165zm-5 25a5 5 0 10-.001-10.001A5 5 0 00125 190zM150 5a5 5 0 11-10 0 5 5 0 0110 0zm-5 25a5 5 0 100-10 5 5 0 000 10zm5 15a5 5 0 11-10 0 5 5 0 0110 0zm-5 25a5 5 0 100-10 5 5 0 000 10zm5 15a5 5 0 11-10 0 5 5 0 0110 0zm-5 25a5 5 0 10-.001-10.001A5 5 0 00145 110zm5 15a5 5 0 11-10.001-.001A5 5 0 01150 125zm-5 25a5 5 0 10-.001-10.001A5 5 0 00145 150zm5 15a5 5 0 11-10.001-.001A5 5 0 01150 165zm-5 25a5 5 0 10-.001-10.001A5 5 0 00145 190zM170 5a5 5 0 11-10 0 5 5 0 0110 0zm-5 25a5 5 0 100-10 5 5 0 000 10zm5 15a5 5 0 11-10 0 5 5 0 0110 0zm-5 25a5 5 0 100-10 5 5 0 000 10zm5 15a5 5 0 11-10 0 5 5 0 0110 0zm-5 25a5 5 0 10-.001-10.001A5 5 0 00165 110zm5 15a5 5 0 11-10.001-.001A5 5 0 01170 125zm-5 25a5 5 0 10-.001-10.001A5 5 0 00165 150zm5 15a5 5 0 11-10.001-.001A5 5 0 01170 165zm-5 25a5 5 0 10-.001-10.001A5 5 0 00165 190z"/></symbol><symbol viewBox="0 0 81 93" id="icon-apple" xmlns="http://www.w3.org/2000/svg"><path d="M74.144 33.195c-5.16-6.216-11.282-9.057-18.784-9.805-1.22-.12-1.05-.138-1.373-.138-3.946 0-7.434.398-10.925 1.245a22.43 22.43 0 00-1.555-5.255c8.397.68 15.771-5.336 16.894-13.594a2.88 2.88 0 00-1.497-2.93c-8.199-4.378-18.427-.763-22.002 7.884-2.43-2.042-5.376-3.833-8.914-5.42a2.88 2.88 0 10-2.357 5.257c7.793 3.495 12.17 7.983 13.541 13.957-10.123-2.165-19.633-1.18-27.293 5.601-4.76 4.178-7.65 9.626-8.61 15.578-.716 4.474-.213 12.053 1.716 18.491 1.897 6.675 5.184 12.849 9.778 18.362 1.33 1.578 2.984 3.542 4.98 5.14 9.152 7.251 17.582 4.044 22.612 2.72 1.475-.176 13.451 5.901 23.496-3.193 10.214-9.297 15.897-22.598 16.187-36.543.096-6.556-1.887-12.395-5.894-17.357z"/></symbol><symbol viewBox="0 0 451.8 451.8" id="icon-arrow" xmlns="http://www.w3.org/2000/svg"><path d="M354.7 225.9c0 8.1-3.1 16.2-9.3 22.4L151.2 442.6c-12.4 12.4-32.4 12.4-44.8 0-12.4-12.4-12.4-32.4 0-44.7L278.3 226 106.4 54C94 41.6 94 21.6 106.4 9.3c12.4-12.4 32.4-12.4 44.8 0l194.3 194.3c6.1 6.1 9.2 14.2 9.2 22.3z"/></symbol><symbol viewBox="0 0 13 22" id="icon-arrow-angel" xmlns="http://www.w3.org/2000/svg"><path d="M2 2l9 9-9 9"/></symbol><symbol viewBox="0 0 16 16" id="icon-arrow-download" xmlns="http://www.w3.org/2000/svg"><path d="M7.293 15.707a1 1 0 001.414 0l6.364-6.364a1 1 0 00-1.414-1.414L8 13.586 2.343 7.929A1 1 0 00.93 9.343l6.364 6.364zM7 0v15h2V0H7z"/></symbol><symbol viewBox="0 0 80 80" id="icon-calendar" xmlns="http://www.w3.org/2000/svg"><path d="M20 0a2.857 2.857 0 00-2.857 2.857v5.714h5.714V2.857A2.857 2.857 0 0020 0zm40 0a2.857 2.857 0 00-2.857 2.857v5.714h5.714V2.857A2.857 2.857 0 0060 0z"/><path d="M71.429 8.571h-8.572V20a2.857 2.857 0 11-5.714 0V8.57H22.857V20a2.857 2.857 0 11-5.714 0V8.57H8.57A8.571 8.571 0 000 17.143v54.285A8.571 8.571 0 008.571 80H71.43A8.571 8.571 0 0080 71.428V17.143a8.571 8.571 0 00-8.571-8.572zm2.857 62.857a2.857 2.857 0 01-2.858 2.858H8.571a2.857 2.857 0 01-2.857-2.858V34.286h68.572v37.142z"/><path d="M22.858 40h-5.714a2.857 2.857 0 100 5.714h5.715a2.857 2.857 0 100-5.714zm19.999 0h-5.715a2.857 2.857 0 100 5.714h5.715a2.857 2.857 0 100-5.714zm20 0h-5.715a2.857 2.857 0 100 5.714h5.715a2.857 2.857 0 100-5.714zM22.858 51.429h-5.714a2.857 2.857 0 100 5.714h5.715a2.857 2.857 0 100-5.714zm19.999 0h-5.715a2.857 2.857 0 100 5.714h5.715a2.857 2.857 0 100-5.714zm20 0h-5.715a2.857 2.857 0 100 5.714h5.715a2.857 2.857 0 100-5.714zM22.858 62.857h-5.714a2.857 2.857 0 100 5.715h5.715a2.857 2.857 0 100-5.715zm19.999 0h-5.715a2.857 2.857 0 100 5.715h5.715a2.857 2.857 0 100-5.715zm20 0h-5.715a2.857 2.857 0 100 5.715h5.715a2.857 2.857 0 100-5.715z"/></symbol><symbol viewBox="0 0 45 45" id="icon-cart" xmlns="http://www.w3.org/2000/svg"><g clip-path="url(#agclip0)"><path d="M18.049 45a5.32 5.32 0 100-10.64 5.32 5.32 0 000 10.64zm15.525-10.639a5.32 5.32 0 100 10.64 5.32 5.32 0 000-10.64zm9.065-5.428H14.9l-.542-3.149h22.798a1.628 1.628 0 001.52-1.031l5.428-13.68a1.628 1.628 0 00-1.52-2.225H11.535l-1.303-7.49A1.628 1.628 0 008.604 0H2.36a1.628 1.628 0 000 3.257h4.886l4.668 27.575a1.629 1.629 0 001.629 1.358h29.095a1.628 1.628 0 100-3.257z"/></g><defs><clipPath id="agclip0"><path d="M0 0h45v45H0z"/></clipPath></defs></symbol><symbol viewBox="0 0 30 45" id="icon-chat" xmlns="http://www.w3.org/2000/svg"><path d="M28.688 42.416c0-.123.123-4.43-2.585-6.89-.246-.247-.615-.247-.984 0-.123.122-2.953 2.214-5.66 0-.247-.247-.739-.247-.985 0l-.861.86a6.475 6.475 0 00-1.477-1.722c-.246-.246-.615-.246-.984 0-.123.123-4.43 3.322-8.368 0-.246-.246-.738-.246-.984 0-.123.123-3.692 3.322-3.815 9.598 0 .246.123.37.246.492.123.123.37.247.492.247h16.243c.37 0 .739-.37.739-.739v-1.107h8.121c.492 0 .861-.37.861-.739zm-6.904-27.14H16v1.722c0 .862.738 1.6 1.6 1.6h5.168l1.476 1.723c.124.123.247.246.37.246h.246a.677.677 0 00.369-.615l-.123-1.23h2.584c.861 0 1.6-.74 1.6-1.6V10.6c0-.862-.739-1.6-1.6-1.6h-3.569v3.938c.123 1.23-.984 2.338-2.337 2.338z"/><path d="M0 11.813c0 1.354 1.107 2.338 2.338 2.338h6.399l-.123 2.338c0 .246.123.492.369.615h.246c.123 0 .37-.123.492-.246l2.461-2.707h7.876c1.353 0 2.338-1.107 2.338-2.338V2.338C22.396.984 21.288 0 20.058 0H2.338C1.108 0 0 1.107 0 2.338v9.475zM22.288 34.99a4.929 4.929 0 003.569-1.476 4.928 4.928 0 001.476-3.568c0-2.83-2.338-5.045-5.045-5.045a4.928 4.928 0 00-3.569 1.476c-.246.246-.492.616-.738.985v-.739a6.88 6.88 0 00-6.89-6.89c-1.847 0-3.57.738-4.923 2.091-1.354 1.354-2.092 3.077-2.092 4.922 0 3.692 3.076 6.891 6.891 6.891 1.846 0 3.569-.738 4.922-2.091.492-.493.985-1.108 1.23-1.723v.123c0 2.83 2.339 5.045 5.169 5.045z"/></symbol><symbol viewBox="0 0 25 23" id="icon-chating" xmlns="http://www.w3.org/2000/svg"><path d="M17.287.669H2.827A2.83 2.83 0 000 3.496v12.671c0 .6.679.938 1.158.596l4.027-2.873c.337-.24.735-.368 1.15-.368h8.857a2.83 2.83 0 002.827-2.827V1.4a.733.733 0 00-.732-.732zM13.729 9.54H5.267a.732.732 0 110-1.464h8.462a.733.733 0 010 1.464zm0-3.417H5.267a.732.732 0 110-1.465h8.462a.733.733 0 010 1.465z"/><path d="M25 9.177v12.67a.733.733 0 01-1.158.597l-4.027-2.873a1.971 1.971 0 00-1.15-.368H9.808a2.83 2.83 0 01-2.827-2.828v-1.388h8.21a4.297 4.297 0 004.293-4.292V6.35h2.689A2.83 2.83 0 0125 9.177z"/></symbol><symbol viewBox="0 0 24 24" id="icon-checkmark" xmlns="http://www.w3.org/2000/svg"><circle cx="12" cy="12" r="11"/><path d="M7 12l3.636 4L17 9"/></symbol><symbol viewBox="0 0 10 10" id="icon-clock" xmlns="http://www.w3.org/2000/svg"><path d="M5 0C2.243 0 0 2.243 0 5s2.243 5 5 5 5-2.243 5-5-2.243-5-5-5zm2.378 7.586a.416.416 0 01-.59 0L4.706 5.503a.415.415 0 01-.122-.295V2.5a.416.416 0 11.834 0v2.536l1.96 1.961a.416.416 0 010 .59z"/></symbol><symbol viewBox="0 0 11 10" id="icon-comment" xmlns="http://www.w3.org/2000/svg"><path d="M9.488 0H1.512C.678 0 0 .67 0 1.494v4.823C0 7.14.675 7.81 1.507 7.811V10L4.69 7.812h4.798c.834 0 1.512-.67 1.512-1.495V1.494C11 .67 10.322 0 9.488 0zM8.056 5.605H2.944v-.637h5.112v.637zm0-1.359H2.944v-.637h5.112v.637zm0-1.359H2.944V2.25h5.112v.637z"/></symbol><symbol viewBox="0 0 115 115" id="icon-conceive" xmlns="http://www.w3.org/2000/svg"><path fill-rule="evenodd" clip-rule="evenodd" d="M15.899 11.775L11.775 15.9a1.944 1.944 0 000 2.749l7.789 7.788 6.872-6.872-7.788-7.789a1.945 1.945 0 00-2.75 0zm9.621 20.618l-3.665-3.666 6.872-6.872 3.666 3.665-6.873 6.873zm-2.185 2.396l-.106-.106L9.484 20.94a5.184 5.184 0 010-7.331l4.124-4.124a5.183 5.183 0 017.33 0L34.684 23.23l.106.106c2.009-1.378 4.504-1.84 6.81-.902 3.854 1.567 9.383 4.583 13.645 10.016 2.212 2.82 4.398 5.977 6.597 9.154 3.673 5.308 7.386 10.672 11.328 14.614 7.179 7.179 16.573 14.188 24.054 19.332 7.36 5.061 11.184 14.077 9.106 22.765a10.831 10.831 0 01-8.015 8.015c-8.688 2.078-17.704-1.746-22.765-9.106-5.144-7.48-12.153-16.875-19.332-24.054-3.942-3.942-9.306-7.654-14.614-11.328-3.177-2.2-6.334-4.385-9.154-6.597C27.016 50.982 24 45.454 22.433 41.6c-.937-2.306-.476-4.801.902-6.81zm26.411 6.365a16.252 16.252 0 00-1.32-1.429l-8.242 8.243a16.293 16.293 0 001.429 1.32l8.133-8.134zm-5.355 9.937c.98.483 1.946.808 2.849.978 2.16.407 3.603-.1 4.395-.892.793-.792 1.3-2.236.892-4.396a11.173 11.173 0 00-.978-2.848l-7.158 7.158zm-2.563-15.009c1.264.238 2.65.78 4.026 1.634l-7.68 7.68c-.854-1.376-1.395-2.763-1.633-4.026-.407-2.16.099-3.603.891-4.396.793-.792 2.237-1.298 4.396-.892zm12.098 17.386c3.543-3.542 2.21-10.62-2.978-15.807-5.187-5.187-12.264-6.52-15.806-2.978-3.543 3.543-2.21 10.62 2.978 15.807 5.187 5.187 12.264 6.52 15.806 2.978z"/></symbol><symbol viewBox="0 0 25 25" id="icon-contacts" xmlns="http://www.w3.org/2000/svg"><path d="M12.5 0a6.583 6.583 0 00-6.592 6.592c0 2.286 1.225 4.447 3.199 5.638 1.272.761 2.225 1.95 2.735 3.472.122.252.404.35.684.35s.562-.221.684-.473a6.13 6.13 0 012.686-3.35 6.628 6.628 0 003.196-5.637A6.587 6.587 0 0012.5 0zm0 10.254a.732.732 0 110-1.465.732.732 0 010 1.465zm.742-3.058c0 .404-.333.796-.737.796-.405 0-.738-.263-.738-.668 0-.739.395-1.297.98-1.507a.732.732 0 11-2.445-.69A2.2 2.2 0 0112.5 2.93a2.2 2.2 0 012.197 2.197c0 .925-.585 1.757-1.455 2.07z"/><path d="M24.268 7.324h-.733v12.549a2.2 2.2 0 01-2.197 2.197h-6.766a2.202 2.202 0 01-2.072 1.465 2.2 2.2 0 01-2.072-1.465H3.662a2.2 2.2 0 01-2.197-2.197V7.324H.732A.732.732 0 000 8.057v14.746c0 .405.328.732.732.732h8.535l1.25 1.25a.732.732 0 00.518.215h2.93c.194 0 .38-.077.518-.215l1.25-1.25h8.535a.732.732 0 00.732-.732V8.057a.732.732 0 00-.732-.733z"/><path d="M10.483 16.257c-.047-.09-.45-1.766-2.129-2.77-2.414-1.457-3.91-4.099-3.91-6.895 0-.735.088-1.409.271-2.06.012-.047.035-.09.048-.137H3.711a.732.732 0 00-.732.732v14.746c0 .405.327.732.732.732h7.324c.404 0 .733.329.733.733v-3.95c-.982-.316-1.261-1.1-1.285-1.131zM21.29 4.395h-1.058c.019.065.05.124.066.19.17.602.259 1.27.259 2.007 0 2.796-1.496 5.437-3.903 6.89-1.68 1.005-2.006 2.512-2.126 2.737a2.338 2.338 0 01-1.296 1.157v3.962c0-.404.329-.733.733-.733h7.324a.732.732 0 00.732-.732V5.127a.732.732 0 00-.732-.732z"/></symbol><symbol viewBox="0 0 80 80" id="icon-cursor" xmlns="http://www.w3.org/2000/svg"><path d="M79.212 67.663l-15.92-15.921 11.358-6.56a2.675 2.675 0 00-.347-4.802L23.655 20.176a2.675 2.675 0 00-3.476 3.476l20.2 50.654a2.676 2.676 0 004.802.347l6.56-11.358 15.92 15.921a2.675 2.675 0 003.783 0l7.769-7.77a2.675 2.675 0 000-3.783zM11.747 7.96a2.677 2.677 0 00-3.784 3.784l5.945 5.945a2.667 2.667 0 001.891.783 2.675 2.675 0 001.891-4.567L11.748 7.96zm2.015 18.495a2.676 2.676 0 00-2.676-2.675H2.68a2.676 2.676 0 000 5.35h8.407a2.676 2.676 0 002.676-2.675zm-1.086 8.257l-5.945 5.945a2.676 2.676 0 003.783 3.784l5.945-5.945a2.676 2.676 0 00-3.783-3.784zm13.78-20.954a2.676 2.676 0 002.676-2.675V2.675a2.675 2.675 0 00-5.35 0v8.408a2.675 2.675 0 002.674 2.675zm10.149 3.482c.685 0 1.37-.26 1.892-.783l5.944-5.944a2.675 2.675 0 10-3.783-3.784l-5.945 5.945a2.675 2.675 0 001.892 4.567z"/></symbol><symbol viewBox="0 0 24 24" id="icon-facebook" xmlns="http://www.w3.org/2000/svg"><path d="M13.5 8.25v-3a1.5 1.5 0 011.5-1.5h1.5V0h-3A4.5 4.5 0 009 4.5v3.75H6V12h3v12h4.5V12h3L18 8.25h-4.5z"/></symbol><symbol viewBox="0 0 93 93" id="icon-family" xmlns="http://www.w3.org/2000/svg"><g clip-path="url(#aqclip0)"><path d="M29.839 63.487l1.34-1.507a16.063 16.063 0 01.065-9.76 18.698 18.698 0 01-23.287-4.342C3.632 51.308.854 56.61.854 62.548v26.745a2.676 2.676 0 002.674 2.675h22.035a7.958 7.958 0 01-.46-2.675V75.92a18.68 18.68 0 014.736-12.433zM22.25 49.174c7.386 0 13.373-5.987 13.373-13.373 0-7.386-5.987-13.373-13.373-13.373-7.385 0-13.373 5.987-13.373 13.373 0 7.386 5.988 13.373 13.373 13.373zm62.793-1.296a18.693 18.693 0 01-23.287 4.34 16.066 16.066 0 01.064 9.762l1.34 1.507a18.68 18.68 0 014.737 12.433v13.373c0 .938-.163 1.838-.46 2.675h22.035a2.676 2.676 0 002.674-2.675V62.547c0-5.937-2.778-11.238-7.103-14.67zM70.75 49.174c7.385 0 13.372-5.987 13.372-13.373 0-7.386-5.987-13.373-13.373-13.373-7.385 0-13.372 5.987-13.372 13.373 0 7.386 5.987 13.373 13.372 13.373zM46.5 73.246c-5.143 0-9.727-2.43-12.665-6.203a13.312 13.312 0 00-3.383 8.877v13.373a2.676 2.676 0 002.675 2.675h26.746a2.676 2.676 0 002.674-2.675V75.92c0-3.404-1.278-6.513-3.382-8.877-2.939 3.772-7.523 6.203-12.665 6.203z"/><path d="M46.5 67.896c5.908 0 10.698-4.79 10.698-10.698 0-5.909-4.79-10.699-10.698-10.699-5.909 0-10.699 4.79-10.699 10.699 0 5.908 4.79 10.698 10.699 10.698zm-7.61-45.291c3.053 2.823 6.08 4.697 6.208 4.776.86.529 1.944.529 2.804 0 .127-.079 3.154-1.953 6.208-4.776 4.416-4.08 6.654-8.047 6.654-11.79 0-8.502-8.453-12.492-14.264-7.77-5.824-4.732-14.265-.709-14.265 7.77 0 3.743 2.24 7.71 6.655 11.79z"/></g><defs><clipPath id="aqclip0"><path transform="translate(.854 .854)" d="M0 0h91.293v91.293H0z"/></clipPath></defs></symbol><symbol viewBox="0 0 19 19" id="icon-filter" xmlns="http://www.w3.org/2000/svg"><g clip-path="url(#arclip0)"><path d="M15.267.5H3.733A3.237 3.237 0 00.5 3.733v11.534A3.237 3.237 0 003.733 18.5h11.534a3.236 3.236 0 003.233-3.233V3.733A3.236 3.236 0 0015.267.5zm.445 14.047h-5.77c-.506 1.5-2.636 1.503-3.144 0h-3.51c-.7 0-.7-1.059 0-1.059h3.51c.507-1.5 2.637-1.503 3.145 0h5.769c.7 0 .7 1.06 0 1.06zm0-4.518H14.46c-.507 1.501-2.637 1.504-3.145 0H3.288c-.7 0-.7-1.058 0-1.058h8.028c.507-1.501 2.637-1.504 3.145 0h1.25c.701 0 .701 1.058 0 1.058zm0-4.517H7.684c-.507 1.5-2.637 1.503-3.145 0H3.29c-.701 0-.701-1.06 0-1.06h1.25c.507-1.5 2.637-1.502 3.145 0h8.028c.7 0 .7 1.06 0 1.06z"/><path d="M8.37 13.418c-.793 0-.793 1.2 0 1.2.794 0 .794-1.2 0-1.2zM6.11 4.382c-.793 0-.793 1.2 0 1.2.795 0 .794-1.2 0-1.2zM12.888 8.9c-.794 0-.793 1.2 0 1.2.794 0 .794-1.2 0-1.2z"/></g><defs><clipPath id="arclip0"><path transform="translate(.5 .5)" d="M0 0h18v18H0z"/></clipPath></defs></symbol><symbol viewBox="0 0 95 95" id="icon-hands" xmlns="http://www.w3.org/2000/svg"><g clip-path="url(#asclip0)"><path d="M93.57 22.385l-13.413 8.718a13.957 13.957 0 01-9.724 2.113c-10.122-1.546-19.285-5.298-27.1-10.658a5.397 5.397 0 01-2.257-5.56c.535-2.654 2.91-4.347 5.426-4.347h12.197c.827 0 1.553-.62 1.61-1.446a1.558 1.558 0 00-1.555-1.673H46.536c-3.7 0-7.06 2.308-8.24 5.817-.96 2.855-.368 5.92 1.503 8.17.582.7.438 1.749-.308 2.27l-19.75 13.812a5.5 5.5 0 01-7.38-.96 5.541 5.541 0 01.36-7.522l27.86-27.16A11.467 11.467 0 0150.537.883L79.78 6.015a3.862 3.862 0 003.14-.836l4.907-4.104c.904-.753 2.289-.273 2.527.881l3.891 18.805a1.56 1.56 0 01-.676 1.624zM82.278 63.881l-27.86 27.16a11.467 11.467 0 01-9.955 3.075l-29.245-5.131a3.862 3.862 0 00-3.14.836L7.17 93.925c-.898.75-2.287.278-2.527-.881L.754 74.239a1.558 1.558 0 01.676-1.624l13.412-8.718a13.96 13.96 0 019.724-2.113c10.042 1.533 19.296 5.276 27.102 10.658 1.956 1.336 2.933 3.865 2.033 6.343-.65 1.951-2.732 3.564-5.201 3.564H36.248a1.56 1.56 0 000 3.119h12.217c3.7 0 7.059-2.308 8.238-5.817.963-2.858.368-5.923-1.502-8.172a1.556 1.556 0 01.309-2.27L75.258 55.4a5.498 5.498 0 017.381.96 5.54 5.54 0 01-.36 7.522z"/><path d="M40.367 56.286c3.053 2.822 6.08 4.696 6.208 4.775.86.529 1.944.529 2.804 0 .127-.079 3.154-1.953 6.208-4.775 4.416-4.081 6.654-8.048 6.654-11.791 0-8.501-8.453-12.492-14.264-7.77-5.824-4.732-14.265-.709-14.265 7.77 0 3.743 2.24 7.71 6.655 11.79z"/></g><defs><clipPath id="asclip0"><path transform="translate(.712 .712)" d="M0 0h93.575v93.575H0z"/></clipPath></defs></symbol><symbol viewBox="0 0 297 241" id="icon-heart" xmlns="http://www.w3.org/2000/svg"><path d="M223.949 177.246c-37.299 26.856-81.143 38.72-120.288 63.198-10.188-40.62-36.064-61.34-64.188-89.996C1.98 112.157-30.62 11.045 50.241.978c21.596-2.683 42.244 9.917 58.005 24.979 14.814 14.249 26.712 31.335 35.273 49.974C155.935 32.44 199.317-.075 244.106.947c7.959.242 16.119 1.252 23.115 4.956 6.516 3.423 11.666 8.772 16.009 15.078 17.622 25.237 16.423 60.623 2.752 88.192-13.935 27.804-36.231 49.808-62.033 68.073z"/></symbol><symbol viewBox="0 0 62 15" id="icon-heart-separator" xmlns="http://www.w3.org/2000/svg"><path d="M12.615 10.263c-2.002 1.441-4.357 2.078-6.458 3.391-.547-2.18-1.937-3.291-3.447-4.83-2.013-2.054-3.764-7.48.578-8.02 1.16-.144 2.268.532 3.115 1.34a8.838 8.838 0 011.894 2.682c.666-2.334 2.996-4.079 5.4-4.024.428.013.866.067 1.242.266.35.184.626.47.86.81.946 1.354.881 3.252.147 4.732-.748 1.492-1.945 2.673-3.33 3.653zm22.643 0c-2.003 1.441-4.357 2.078-6.46 3.391-.546-2.18-1.935-3.291-3.446-4.83-2.013-2.054-3.763-7.48.578-8.02 1.16-.144 2.269.532 3.115 1.34a8.838 8.838 0 011.894 2.682C31.606 2.492 33.935.747 36.34.802c.427.013.865.067 1.241.266.35.184.627.47.86.81.946 1.354.882 3.252.148 4.732-.749 1.492-1.946 2.673-3.331 3.653zm22.642 0c-2.003 1.441-4.357 2.078-6.459 3.391-.547-2.18-1.936-3.291-3.447-4.83-2.013-2.054-3.763-7.48.579-8.02 1.16-.144 2.268.532 3.114 1.34a8.838 8.838 0 011.894 2.682c.667-2.334 2.996-4.079 5.401-4.024.428.013.866.067 1.241.266.35.184.627.47.86.81.946 1.354.882 3.252.148 4.732-.749 1.492-1.946 2.673-3.331 3.653z"/></symbol><symbol viewBox="0 0 10 10" id="icon-heart-small" xmlns="http://www.w3.org/2000/svg"><path d="M9.207 1.418a2.689 2.689 0 00-2-.871c-.578 0-1.106.182-1.572.542A3.215 3.215 0 005 1.753c-.188-.26-.4-.482-.635-.664A2.515 2.515 0 002.793.547a2.69 2.69 0 00-2 .87C.282 1.973 0 2.73 0 3.553c0 .846.315 1.62.992 2.437.605.73 1.475 1.471 2.483 2.33.344.293.734.625 1.138.98a.586.586 0 00.773 0c.405-.355.795-.687 1.14-.98 1.007-.859 1.877-1.6 2.482-2.33.677-.817.992-1.591.992-2.437 0-.822-.282-1.58-.793-2.134z"/></symbol><symbol viewBox="0 0 40 36" id="icon-heart-stroke" xmlns="http://www.w3.org/2000/svg"><path d="M19.595 5.303l.405.56.405-.56a12.362 12.362 0 012.442-2.55C24.623 1.378 26.63.686 28.826.686c2.951 0 5.658 1.18 7.633 3.322 1.953 2.119 3.041 5.026 3.041 8.2 0 3.239-1.2 6.227-3.852 9.426-2.388 2.88-5.83 5.816-9.87 9.259l-.034.03a463.657 463.657 0 00-4.527 3.894 1.846 1.846 0 01-2.434 0 468.935 468.935 0 00-4.556-3.92l-.004-.003c-4.042-3.444-7.483-6.38-9.87-9.26C1.7 18.435.5 15.448.5 12.21c0-3.174 1.088-6.081 3.04-8.2C5.516 1.867 8.224.687 11.175.687c2.196 0 4.203.692 5.979 2.066a12.35 12.35 0 012.442 2.55z"/></symbol><symbol viewBox="0 0 43 38.6" id="icon-heart-track" xmlns="http://www.w3.org/2000/svg"><path d="M21.1 6.6l.4.6.4-.6c.7-1 1.5-1.9 2.4-2.6 1.8-1.4 3.8-2.1 6-2.1 3 0 5.7 1.2 7.6 3.3 2 2.1 3 5 3 8.2 0 3.2-1.2 6.2-3.9 9.4-2.4 2.9-5.8 5.8-9.9 9.3-1.4 1.2-2.9 2.5-4.5 3.9-.3.3-.8.5-1.2.5-.4 0-.9-.2-1.2-.5-1.6-1.4-3.2-2.7-4.6-3.9-4-3.4-7.5-6.4-9.9-9.3-2.5-3.1-3.7-6-3.7-9.3 0-3.2 1.1-6.1 3-8.2C7 3.2 9.7 2 12.7 2c2.2 0 4.2.7 6 2.1.9.7 1.7 1.5 2.4 2.5z"/></symbol><symbol viewBox="0 0 46 45" id="icon-hend-heart" xmlns="http://www.w3.org/2000/svg"><g clip-path="url(#ayclip0)"><path d="M36.225 2.375c-1.145-1.054-2.61-1.56-4.086-1.56-1.661 0-3.34.641-4.59 1.867l-.537.525-.537-.527A6.593 6.593 0 0021.884.815c-1.476 0-2.94.506-4.085 1.56a5.879 5.879 0 00-.135 8.57l9.348 9.144 9.347-9.145a5.879 5.879 0 00-.134-8.569zm9.175 22.37c-1.437-.952-3.13-.683-4.629.164-1.499.847-10.106 8.046-10.106 8.046l-8.473.001c-.394 0-.82-.433-.82-.817 0-.452.402-.803.82-.803h5.184c1.814 0 3.845-1.157 3.845-3.213 0-2.184-2.03-3.212-3.845-3.212-3.148 0-3.76.012-3.76.012-1.261 0-2.54-.073-3.525-.59a9.898 9.898 0 00-4.443-1.03c-2.713 0-5.141 1.058-6.806 2.727L0 34.547l9.852 9.637 3.284-3.213h16.628a6.846 6.846 0 004.488-1.668l11.26-12.356c.687-.597.648-1.696-.112-2.202z"/></g><defs><clipPath id="ayclip0"><path d="M0 0h46v45H0z"/></clipPath></defs></symbol><symbol viewBox="0 0 24 24" id="icon-home" xmlns="http://www.w3.org/2000/svg"><g clip-path="url(#azclip0)"><path d="M23.352 10.439l-.001-.002-9.79-9.79A2.194 2.194 0 0011.998 0c-.59 0-1.144.23-1.562.647L.651 10.432l-.01.01a2.212 2.212 0 00.004 3.12 2.197 2.197 0 001.535.648h.39v7.204A2.589 2.589 0 005.156 24h3.83a.703.703 0 00.703-.703v-5.649c0-.65.53-1.18 1.18-1.18h2.259c.65 0 1.18.53 1.18 1.18v5.649c0 .388.315.703.703.703h3.83a2.589 2.589 0 002.586-2.586V14.21h.362c.59 0 1.145-.23 1.562-.648.86-.86.861-2.261.001-3.123z"/></g><defs><clipPath id="azclip0"><path d="M0 0h24v24H0z"/></clipPath></defs></symbol><symbol viewBox="0 0 24 24" id="icon-instagram" xmlns="http://www.w3.org/2000/svg"><path d="M16.5 0h-9A7.5 7.5 0 000 7.5v9A7.5 7.5 0 007.5 24h9a7.5 7.5 0 007.5-7.5v-9A7.5 7.5 0 0016.5 0zm5.25 16.5a5.256 5.256 0 01-5.25 5.25h-9a5.256 5.256 0 01-5.25-5.25v-9A5.256 5.256 0 017.5 2.25h9a5.256 5.256 0 015.25 5.25v9z"/><path d="M12 6a6 6 0 100 12 6 6 0 000-12zm0 9.75A3.755 3.755 0 018.25 12 3.754 3.754 0 0112 8.25 3.754 3.754 0 0115.75 12 3.755 3.755 0 0112 15.75zm6.45-9.4a.8.8 0 100-1.6.8.8 0 000 1.6z"/></symbol><symbol viewBox="0 0 93 83" id="icon-life" xmlns="http://www.w3.org/2000/svg"><path d="M46.474 7.888C26.574-9.517 1.274 5.775.859 26.507.753 31.79 2.278 36.936 5.314 41.68H24.99l3.5-5.834c1.016-1.693 3.476-1.748 4.55-.06l7.384 11.605 10.764-22.724c.938-1.983 3.736-2.046 4.771-.123l9.227 17.136h22.447C104.262 15.693 71.4-13.913 46.474 7.888z"/><path d="M61.235 45.623l-7.477-13.886-10.573 22.32c-.9 1.9-3.545 2.065-4.673.292l-7.661-12.04-2.053 3.422a2.674 2.674 0 01-2.293 1.298H9.545c.531.557-2.303-2.271 35.042 34.88a2.674 2.674 0 003.773 0c36.77-36.58 34.512-34.324 35.043-34.88H63.59c-.984 0-1.888-.54-2.355-1.406z"/></symbol><symbol viewBox="0 0 24 24" id="icon-link" xmlns="http://www.w3.org/2000/svg"><g clip-path="url(#bcclip0)"><path d="M22.353 1.648a5.625 5.625 0 00-7.955 0l-4.701 4.7c-2.273 2.273-2.062 5.894 0 7.956.345.345.727.627 1.13.858l.858-.858c.563-.563.365-1.221.355-1.696a2.712 2.712 0 01-.355-.293c-1.058-1.058-1.105-2.872 0-3.977l4.702-4.702a2.815 2.815 0 013.977 0 2.815 2.815 0 010 3.978l-3.108 3.107c.09.498.63 1.675.352 3.618.014-.013.03-.022.043-.035l4.702-4.701a5.625 5.625 0 000-7.955z"/><path d="M14.668 9.332a5.354 5.354 0 00-1.13-.858l-.859.858c-.563.563-.364 1.22-.354 1.696.123.087.243.182.354.293 1.058 1.058 1.106 2.872 0 3.977l-5.065 5.066a2.815 2.815 0 01-3.978 0 2.815 2.815 0 010-3.978l3.472-3.471c-.09-.498-.63-1.675-.352-3.618-.013.013-.03.022-.043.035l-5.066 5.066a5.625 5.625 0 007.955 7.955l5.066-5.066c2.23-2.23 2.108-5.847 0-7.955z"/></g><defs><clipPath id="bcclip0"><path d="M0 0h24v24H0z"/></clipPath></defs></symbol><symbol viewBox="0 0 24 24" id="icon-linkedin" xmlns="http://www.w3.org/2000/svg"><path d="M21.6 0H2.4C1.08 0 0 1.08 0 2.4v19.2C0 22.92 1.08 24 2.4 24h19.2c1.32 0 2.4-1.08 2.4-2.4V2.4C24 1.08 22.92 0 21.6 0zM7.2 20.4H3.6V9.6h3.6v10.8zM5.4 7.56c-1.2 0-2.16-.96-2.16-2.16 0-1.2.96-2.16 2.16-2.16 1.2 0 2.16.96 2.16 2.16 0 1.2-.96 2.16-2.16 2.16zm15 12.84h-3.6v-6.36c0-.96-.84-1.8-1.8-1.8-.96 0-1.8.84-1.8 1.8v6.36H9.6V9.6h3.6v1.44c.6-.96 1.92-1.68 3-1.68 2.28 0 4.2 1.92 4.2 4.2v6.84z"/></symbol><symbol viewBox="0 0 80 80" id="icon-list" xmlns="http://www.w3.org/2000/svg"><path d="M52.5 5h-5.43C46.04 2.09 43.26 0 40 0c-3.26 0-6.04 2.09-7.075 5H27.5A2.5 2.5 0 0025 7.5v10a2.5 2.5 0 002.5 2.5h25a2.5 2.5 0 002.5-2.5v-10A2.5 2.5 0 0052.5 5z"/><path fill-rule="evenodd" clip-rule="evenodd" d="M60 10h5c2.805 0 5 2.195 5 5v60c0 2.805-2.195 5-5 5H15c-2.805 0-5-2.195-5-5V15c0-2.755 2.245-5 5-5h5v7.5c0 4.135 3.365 7.5 7.5 7.5h25c4.135 0 7.5-3.365 7.5-7.5V10zM20.333 33.333a2 2 0 00-2 2v1.834a2 2 0 002 2h39.334a2 2 0 002-2v-1.834a2 2 0 00-2-2H20.333zm-2 14.5a2 2 0 012-2h39.334a2 2 0 012 2v1.834a2 2 0 01-2 2H20.333a2 2 0 01-2-2v-1.834zm2 10.5a2 2 0 00-2 2v1.834a2 2 0 002 2h39.334a2 2 0 002-2v-1.834a2 2 0 00-2-2H20.333z"/></symbol><symbol viewBox="0 0 81 80" id="icon-love" xmlns="http://www.w3.org/2000/svg"><path d="M51.054 34.58a490.612 490.612 0 013.457 2.953c1.1.95 2.72.948 3.821 0 .879-.757 2.125-1.82 4.158-3.523 7.371-6.19 12.697-10.66 12.697-17.261 0-6.258-4.597-11.16-10.466-11.16-3.943 0-6.559 2.224-8.201 4.49-1.556-2.273-4.085-4.49-8.038-4.49-5.87 0-10.464 4.902-10.464 11.16 0 6.769 5.186 11.17 13.036 17.831zm-37.67 38.565c6.146-4.175 12.87-5.77 20.19-4.55l11.728 2.017c4.504.75 8.632.516 12.198-.657 7.376-2.458 14.76-10.2 16.717-13.136 2.721-4.081 4.216-8.538 5.155-10.696.891-2.064.891-3.519-.047-4.363-1.08-.986-2.909-.47-4.27.281-2.158 1.22-4.45 4.739-6.796 8.116-3.05 4.41-8.273 7.038-13.62 7.038H37.654v-4.692h7.037c12.48 0 18.062-2.346 18.062-4.691 0-1.97-3.894-2.862-5.207-3.143-5.114-1.173-16.655-1.736-24.537-5.255a12.078 12.078 0 00-4.738-.985c-2.673-.023-5.58.81-8.35 2.955-.047 0-.047 0-.095.047-1.83 1.408-4.331 3.472-7.71 6.428-2.861 2.533-5.629 5.77-10.461 9.898l-.432.372a1.765 1.765 0 00-.254 2.404l9.528 12.55c.567.746 1.617.92 2.393.395l.493-.333z"/></symbol><symbol viewBox="0 0 14 20" id="icon-map-marker" xmlns="http://www.w3.org/2000/svg"><path d="M7 0a7 7 0 00-7 7c0 5 7 13 7 13s7-8 7-13a7 7 0 00-7-7zm0 9.5a2.5 2.5 0 110-5 2.5 2.5 0 010 5z"/></symbol><symbol viewBox="0 0 18 20" id="icon-phone" xmlns="http://www.w3.org/2000/svg"><path d="M15.984 13.92c-1.166-1.033-2.352-1.661-3.503-.627l-.69.621c-.502.455-1.439 2.57-5.057-1.743-3.618-4.305-1.466-4.976-.96-5.424l.692-.625c1.146-1.034.713-2.335-.115-3.677l-.497-.81C5.024.298 4.117-.58 2.969.45l-.621.564C1.838 1.397.419 2.643.075 5.01-.34 7.848.97 11.1 3.964 14.668 6.955 18.238 9.887 20.03 12.66 20a5.772 5.772 0 004.137-1.775l.62-.564c1.149-1.03.436-2.082-.732-3.116l-.7-.624z"/></symbol><symbol viewBox="0 0 95 95" id="icon-pregnacy" xmlns="http://www.w3.org/2000/svg"><path d="M80.584 14.416C71.747 5.579 59.997.712 47.5.712c-12.498 0-24.247 4.867-33.084 13.704C5.579 23.253.712 35.002.712 47.5c0 12.498 4.867 24.247 13.704 33.084 8.837 8.837 20.586 13.704 33.084 13.704 12.497 0 24.247-4.867 33.084-13.704C89.42 71.747 94.288 59.997 94.288 47.5c0-12.498-4.867-24.247-13.704-33.084zM47.5 88.805c-22.776 0-41.305-18.53-41.305-41.305 0-12.14 5.265-23.072 13.63-30.636l1.258 3.595a15.86 15.86 0 009.344 9.604c5.312 2.024 8.026 7.994 6.063 13.324l-.4.982c-5-2.843-11.837-.306-15.3 5.691h-1.123a5.764 5.764 0 000 11.529h7.021a11.552 11.552 0 002.453 9.416 12.758 12.758 0 009.842 4.64 47.232 47.232 0 0021.403-5.127 23.811 23.811 0 0013.02-21.226c0-.606.214-1.195.609-1.656a13.434 13.434 0 003.233-9.287c-.264-7.074-6.067-12.793-13.145-12.96-7.593-.179-13.805 5.923-13.805 13.476 0 3.852 1.434 6.055 1.434 6.055-3.25 0-10.288 3.06-10.827 9.114l-.04.004c.087-1.754-.178-3.448-.773-4.96l1.493-3.663.03-.078c3.035-8.151-1.109-17.302-9.236-20.398a10.388 10.388 0 01-6.12-6.29l-1.877-5.363A41.068 41.068 0 0147.5 6.196c22.775 0 41.305 18.528 41.305 41.304 0 22.776-18.53 41.305-41.305 41.305z"/></symbol><symbol viewBox="0 0 24 24" id="icon-search" xmlns="http://www.w3.org/2000/svg"><path d="M23.233 21.86l-5.712-5.94a9.66 9.66 0 002.274-6.23c0-5.343-4.347-9.69-9.69-9.69C4.762 0 .415 4.347.415 9.69c0 5.343 4.347 9.69 9.69 9.69a9.586 9.586 0 005.551-1.753l5.756 5.985c.24.25.564.388.91.388a1.265 1.265 0 00.91-2.14zM10.105 2.528c3.949 0 7.162 3.213 7.162 7.162a7.17 7.17 0 01-7.162 7.162A7.17 7.17 0 012.943 9.69a7.169 7.169 0 017.162-7.162z"/></symbol><symbol viewBox="0 0 25 24" id="icon-share" xmlns="http://www.w3.org/2000/svg"><g clip-path="url(#bkclip0)"><path d="M24.5 12.015L14.526 1.057v6.538h-2.12C5.83 7.595.5 12.935.5 19.523v3.465l.942-1.034a16.887 16.887 0 0112.484-5.519h.6v6.538L24.5 12.015z"/></g><defs><clipPath id="bkclip0"><path transform="translate(.5)" d="M0 0h24v24H0z"/></clipPath></defs></symbol><symbol viewBox="0 0 17 18" id="icon-star" xmlns="http://www.w3.org/2000/svg"><path d="M7.946.894a.586.586 0 011.108 0l1.851 4.9a.599.599 0 00.517.392l5.019.331c.539.036.758.743.342 1.104l-3.875 3.358a.642.642 0 00-.197.636l1.25 5.104c.135.547-.44.985-.896.682L8.82 14.578a.573.573 0 00-.638 0L3.935 17.4c-.456.303-1.03-.135-.897-.682l1.251-5.104a.642.642 0 00-.197-.636L.217 7.621C-.2 7.26.02 6.553.559 6.517l5.02-.33a.599.599 0 00.516-.394L7.946.894z"/></symbol><symbol viewBox="0 0 24 24" id="icon-star-clear" xmlns="http://www.w3.org/2000/svg"><path d="M12.314.733l2.614 6.916c.185.491.633.843 1.164.878l7.086.467c.142.009.254.102.302.256a.394.394 0 01-.114.425l-5.47 4.741a1.408 1.408 0 00-.437 1.395l1.766 7.205a.39.39 0 01-.138.415.298.298 0 01-.365.012l-5.995-3.985a1.309 1.309 0 00-1.454 0l-5.995 3.986a.298.298 0 01-.365-.013.39.39 0 01-.138-.415l1.766-7.205a1.406 1.406 0 00-.437-1.395l-5.47-4.74A.394.394 0 01.52 9.25c.048-.154.16-.247.302-.256l7.086-.467a1.345 1.345 0 001.164-.878L11.686.733c.117-.31.51-.31.628 0z"/></symbol><symbol viewBox="0 0 24 24" id="icon-star-fill" xmlns="http://www.w3.org/2000/svg"><path d="M11.218.557a.827.827 0 011.564 0l2.614 6.916c.12.317.404.533.729.555l7.086.467c.76.05 1.07 1.049.483 1.558l-5.47 4.741a.906.906 0 00-.28.898l1.766 7.205c.19.773-.621 1.39-1.265.963l-5.994-3.986a.809.809 0 00-.902 0L5.555 23.86c-.644.428-1.455-.19-1.265-.963l1.765-7.205a.906.906 0 00-.278-.898l-5.47-4.741c-.588-.509-.278-1.508.482-1.558l7.086-.467a.845.845 0 00.73-.555L11.217.557z"/></symbol><symbol viewBox="0 0 243 39" id="icon-stars" xmlns="http://www.w3.org/2000/svg"><path d="M18.97.896a1.332 1.332 0 012.517 0l4.208 11.134c.193.51.65.859 1.173.893l11.408.752c1.224.08 1.723 1.69.777 2.509l-8.806 7.633c-.404.35-.579.913-.448 1.445L32.64 36.86c.305 1.245-1.001 2.24-2.037 1.55l-9.65-6.415a1.302 1.302 0 00-1.451 0l-9.65 6.416c-1.036.688-2.342-.306-2.037-1.55l2.842-11.599a1.459 1.459 0 00-.448-1.445l-8.807-7.633c-.945-.82-.446-2.428.778-2.509l11.407-.752a1.36 1.36 0 001.174-.893L18.969.896zm50.636 0a1.332 1.332 0 012.518 0L76.33 12.03c.193.51.65.859 1.174.893l11.407.752c1.225.08 1.723 1.69.778 2.509l-8.806 7.633c-.404.35-.58.913-.449 1.445l2.843 11.598c.305 1.245-1.001 2.24-2.037 1.55l-9.65-6.415a1.302 1.302 0 00-1.451 0l-9.65 6.416c-1.037.688-2.343-.306-2.038-1.55l2.843-11.599a1.458 1.458 0 00-.449-1.445l-8.806-7.633c-.945-.82-.447-2.428.778-2.509l11.407-.752a1.36 1.36 0 001.174-.893L69.606.896zm50.637 0a1.332 1.332 0 012.518 0l4.207 11.134c.193.51.65.859 1.174.893l11.407.752c1.224.08 1.723 1.69.778 2.509l-8.807 7.633a1.46 1.46 0 00-.448 1.445l2.842 11.598c.305 1.245-1.001 2.24-2.036 1.55l-9.651-6.415a1.302 1.302 0 00-1.451 0l-9.65 6.416c-1.036.688-2.342-.306-2.037-1.55l2.843-11.599a1.46 1.46 0 00-.449-1.445l-8.806-7.633c-.946-.82-.447-2.428.777-2.509l11.408-.752a1.36 1.36 0 001.173-.893L120.243.896zm50.635 0a1.332 1.332 0 012.517 0l4.208 11.134c.193.51.65.859 1.174.893l11.407.752c1.224.08 1.723 1.69.778 2.509l-8.807 7.633c-.404.35-.579.913-.448 1.445l2.842 11.598c.305 1.245-1.001 2.24-2.037 1.55l-9.65-6.415a1.302 1.302 0 00-1.451 0l-9.65 6.416c-1.036.688-2.342-.306-2.037-1.55l2.842-11.599a1.457 1.457 0 00-.448-1.445l-8.807-7.633c-.945-.82-.446-2.428.778-2.509l11.407-.752a1.36 1.36 0 001.174-.893L170.878.896zm50.636 0a1.332 1.332 0 012.518 0l4.208 11.134c.193.51.65.859 1.173.893l11.407.752c1.225.08 1.724 1.69.778 2.509l-8.806 7.633a1.46 1.46 0 00-.449 1.445l2.843 11.598c.305 1.245-1.001 2.24-2.037 1.55l-9.65-6.415a1.302 1.302 0 00-1.451 0l-9.651 6.416c-1.035.688-2.341-.306-2.036-1.55l2.842-11.599a1.46 1.46 0 00-.448-1.445l-8.807-7.633c-.945-.82-.446-2.428.778-2.509l11.407-.752a1.36 1.36 0 001.174-.893L221.514.896z"/></symbol><symbol viewBox="0 0 18 18" id="icon-study" xmlns="http://www.w3.org/2000/svg"><g clip-path="url(#bpclip0)"><path d="M17.661 6.234L9.223 2.577a.562.562 0 00-.447 0L.338 6.234a.563.563 0 000 1.032l8.438 3.656a.562.562 0 00.447 0l5.964-2.584v5.99c0 .303.233.564.536.578a.562.562 0 00.59-.562v-6.21a.176.176 0 00-.154-.175l-7.232-.933a.563.563 0 01.104-1.12c.026.002 8.042 1.037 8.036 1.036.15.02.273.115.332.245a.178.178 0 00.238.09.562.562 0 00.024-1.044z"/><path d="M8.33 11.955l-4.71-2.04a.176.176 0 00-.245.16v2.02c0 1.892 2.47 3.374 5.625 3.374s5.626-1.482 5.626-3.375v-2.018a.176.176 0 00-.246-.161l-4.709 2.04a1.686 1.686 0 01-1.342 0z"/></g><defs><clipPath id="bpclip0"><path d="M0 0h18v18H0z"/></clipPath></defs></symbol><symbol viewBox="0 0 95 73" id="icon-style" xmlns="http://www.w3.org/2000/svg"><path d="M93.292 43.722L84.728 6.949a8.187 8.187 0 00-4.545-5.477 8.162 8.162 0 00-7.116.115l-4.853 2.426a2.743 2.743 0 00-1.227 3.68 2.751 2.751 0 003.68 1.227l4.853-2.427a2.76 2.76 0 012.373-.04 2.718 2.718 0 011.505 1.784l7.267 31.207c-.203-.015-.398-.067-.603-.067H58.304a8.198 8.198 0 00-6.363 3.013c-.7.854-1.18 1.832-1.488 2.857a13.683 13.683 0 00-5.906 0c-.308-1.025-.787-2.004-1.487-2.857a8.199 8.199 0 00-6.364-3.013H8.938c-.205 0-.4.052-.603.067L15.59 8.282a2.739 2.739 0 013.889-1.789l4.853 2.427a2.742 2.742 0 102.453-4.907l-4.853-2.426a8.198 8.198 0 00-7.116-.116c-2.28 1.048-3.937 3.046-4.556 5.523L1.708 43.723A8.164 8.164 0 00.87 49.22l2.408 12.045c1.277 6.387 6.934 11.023 13.447 11.023h12.181c6.514 0 12.17-4.635 13.448-11.023l2.047-10.238a8.148 8.148 0 016.197 0l2.046 10.238c1.278 6.387 6.934 11.023 13.448 11.023h12.18c6.514 0 12.17-4.635 13.448-11.023l2.41-12.045a8.164 8.164 0 00-.837-5.498z"/></symbol><symbol viewBox="0 0 80 80" id="icon-think" xmlns="http://www.w3.org/2000/svg"><g clip-path="url(#brclip0)"><path d="M17.027 72.12A14.846 14.846 0 016.19 67.428a14.856 14.856 0 00-4.072 10.229A2.344 2.344 0 004.461 80h25.133a2.344 2.344 0 002.344-2.344c0-3.956-1.55-7.557-4.072-10.229a14.846 14.846 0 01-10.838 4.694zm56.786-4.692a14.846 14.846 0 01-10.838 4.693 14.846 14.846 0 01-10.838-4.693 14.857 14.857 0 00-4.072 10.228A2.344 2.344 0 0050.407 80H75.54a2.344 2.344 0 002.344-2.344 14.86 14.86 0 00-4.072-10.228z"/><path d="M19.383 67.14c5.48-1.296 8.872-6.788 7.577-12.268s-6.788-8.873-12.268-7.577c-5.48 1.295-8.872 6.788-7.577 12.268s6.788 8.872 12.268 7.577zm50.787-2.694c3.983-3.982 3.983-10.438 0-14.42-3.981-3.982-10.437-3.982-14.419 0-3.982 3.982-3.982 10.438 0 14.42 3.982 3.982 10.438 3.982 14.42 0zM50.148 42.3a16.278 16.278 0 007.979-2.48c2.432 1.098 4.149 2.141 4.167 2.152a2.343 2.343 0 003.568-1.998c0-3.005-.404-5.664-1.203-7.925a16.31 16.31 0 001.203-6.186c0-5.098-2.33-9.662-5.982-12.683a25.743 25.743 0 011.262 7.979c0 8.728-4.35 16.459-10.994 21.14z"/><path d="M15.337 42.018a2.344 2.344 0 002.369-.045c.027-.017 2.534-1.541 6.032-3.09a20.967 20.967 0 0011.56 3.435c11.667 0 21.158-9.492 21.158-21.16C56.456 9.493 46.965 0 35.298 0c-11.668 0-21.16 9.492-21.16 21.159 0 2.863.559 5.626 1.66 8.229-1.101 2.988-1.66 6.543-1.66 10.586 0 .848.46 1.63 1.199 2.044zm29.368-18.515c-1.314 0-2.287-1.074-2.344-2.344-.056-1.266 1.118-2.344 2.344-2.344 1.314 0 2.287 1.074 2.344 2.344.056 1.265-1.118 2.344-2.344 2.344zm-9.407-4.688c1.313 0 2.286 1.074 2.343 2.344.057 1.265-1.117 2.344-2.343 2.344-1.314 0-2.287-1.074-2.344-2.344-.057-1.266 1.118-2.344 2.344-2.344zm-9.408 0c1.314 0 2.287 1.074 2.344 2.344.056 1.265-1.118 2.344-2.344 2.344-1.314 0-2.287-1.074-2.344-2.344-.056-1.266 1.118-2.344 2.344-2.344z"/></g><defs><clipPath id="brclip0"><path d="M0 0h80v80H0z"/></clipPath></defs></symbol><symbol viewBox="0 0 24 24" id="icon-twitter" xmlns="http://www.w3.org/2000/svg"><g clip-path="url(#bsclip0)"><path d="M24 4.559c-.892.391-1.843.65-2.835.776a4.893 4.893 0 002.165-2.719 9.833 9.833 0 01-3.12 1.191 4.919 4.919 0 00-8.511 3.365c0 .39.033.764.114 1.121-4.091-.199-7.71-2.16-10.142-5.146a4.954 4.954 0 00-.673 2.487c0 1.704.877 3.214 2.185 4.089A4.859 4.859 0 01.96 9.117v.054a4.943 4.943 0 003.942 4.835 4.93 4.93 0 01-1.29.162 4.35 4.35 0 01-.932-.084c.638 1.948 2.447 3.38 4.598 3.427a9.886 9.886 0 01-6.1 2.099c-.404 0-.791-.018-1.178-.068a13.852 13.852 0 007.548 2.208c9.054 0 14.004-7.5 14.004-14.001 0-.217-.008-.427-.018-.636A9.816 9.816 0 0024 4.559z"/></g><defs><clipPath id="bsclip0"><path d="M0 0h24v24H0z"/></clipPath></defs></symbol><symbol viewBox="0 0 24 17" id="icon-youtube" xmlns="http://www.w3.org/2000/svg"><path d="M22.775 3.376a2.819 2.819 0 00-1.983-1.983C19.03.91 11.988.91 11.988.91s-7.043 0-8.803.464a2.876 2.876 0 00-1.983 2.001C.738 5.136.738 8.788.738 8.788s0 3.67.464 5.412a2.82 2.82 0 001.983 1.983c1.779.482 8.803.482 8.803.482s7.043 0 8.804-.464a2.819 2.819 0 001.983-1.983c.463-1.76.463-5.412.463-5.412s.019-3.67-.463-5.43zm-13.03 8.785V5.415l5.857 3.373-5.856 3.373z"/></symbol></svg>